<?xml version="1.0" encoding="UTF-8"?>
<svg xmlns="http://www.w3.org/2000/svg" viewBox="0 0 191.54 166.23"><defs><clipPath id="c"><polygon points="143.96 .35 48.19 0 0 82.76 47.58 165.88 143.35 166.23 191.54 83.47"/></clipPath></defs><g clip-path="url(#c)" fill="#202020" stroke="#202020"><path fill="none" stroke-width=".8" stroke-opacity=".38" d="M95.77 83.12L95.77 -56.88M95.77 83.12L149.35 -46.22M95.77 83.12L194.76 -15.87M95.77 83.12L225.11 29.54M95.77 83.12L235.77 83.12M95.77 83.12L225.11 136.7M95.77 83.12L194.76 182.11M95.77 83.12L149.35 212.46M95.77 83.12L95.77 223.12M95.77 83.12L42.19 212.46M95.77 83.12L-3.22 182.11M95.77 83.12L-33.57 136.7M95.77 83.12L-44.23 83.12M95.77 83.12L-33.57 29.54M95.77 83.12L-3.22 -15.87M95.77 83.12L42.19 -46.22"/><circle fill="none" cx="95.77" cy="83.12" r="74" stroke-width="1.1" stroke-dasharray="1.2 3.2" stroke-linecap="round" stroke-opacity=".7"/><circle fill="none" cx="95.77" cy="83.12" r="63" stroke-width="1.7"/><circle fill="none" cx="95.77" cy="83.12" r="55" stroke-width="1"/><path fill="none" stroke-width="1" d="M95.77 28.12L95.77 20.12M101 23.35L101.26 20.36M106.19 24.03L106.71 21.08M110.91 26.61L112.08 22.27M116.29 26.74L117.32 23.92M121.13 28.74L122.39 26.02M125.02 32.46L127.27 28.56M130.18 33.97L131.91 31.51M134.34 37.16L136.27 34.86M134.66 44.23L140.32 38.57M141.73 44.55L144.03 42.62M144.92 48.71L147.38 46.98M146.43 53.87L150.33 51.62M150.15 57.76L152.87 56.5M152.15 62.6L154.97 61.57M152.28 67.98L156.62 66.81M154.86 72.7L157.81 72.18M155.54 77.89L158.53 77.63M150.77 83.12L158.77 83.12M155.54 88.35L158.53 88.61M154.86 93.54L157.81 94.06M152.28 98.26L156.62 99.43M152.15 103.64L154.97 104.67M150.15 108.48L152.87 109.74M146.43 112.37L150.33 114.62M144.92 117.53L147.38 119.26M141.73 121.69L144.03 123.62M134.66 122.01L140.32 127.67M134.34 129.08L136.27 131.38M130.18 132.27L131.91 134.73M125.02 133.78L127.27 137.68M121.13 137.5L122.39 140.22M116.29 139.5L117.32 142.32M110.91 139.63L112.08 143.97M106.19 142.21L106.71 145.16M101 142.89L101.26 145.88M95.77 138.12L95.77 146.12M90.54 142.89L90.28 145.88M85.35 142.21L84.83 145.16M80.63 139.63L79.46 143.97M75.25 139.5L74.22 142.32M70.41 137.5L69.15 140.22M66.52 133.78L64.27 137.68M61.36 132.27L59.63 134.73M57.2 129.08L55.27 131.38M56.88 122.01L51.22 127.67M49.81 121.69L47.51 123.62M46.62 117.53L44.16 119.26M45.11 112.37L41.21 114.62M41.39 108.48L38.67 109.74M39.39 103.64L36.57 104.67M39.26 98.26L34.92 99.43M36.68 93.54L33.73 94.06M36 88.35L33.01 88.61M40.77 83.12L32.77 83.12M36 77.89L33.01 77.63M36.68 72.7L33.73 72.18M39.26 67.98L34.92 66.81M39.39 62.6L36.57 61.57M41.39 57.76L38.67 56.5M45.11 53.87L41.21 51.62M46.62 48.71L44.16 46.98M49.81 44.55L47.51 42.62M56.88 44.23L51.22 38.57M57.2 37.16L55.27 34.86M61.36 33.97L59.63 31.51M66.52 32.46L64.27 28.56M70.41 28.74L69.15 26.02M75.25 26.74L74.22 23.92M80.63 26.61L79.46 22.27M85.35 24.03L84.83 21.08M90.54 23.35L90.28 20.36"/><circle stroke="none" cx="95.77" cy="83.12" r="55" fill-opacity=".07"/><path stroke="none" d="M95.77 83.12L121.23 57.66L95.77 75.12Z"/><path stroke="none" fill-opacity=".32" d="M95.77 83.12L121.23 57.66L103.77 83.12Z"/><path fill="none" stroke-width=".7" stroke-linejoin="round" d="M95.77 83.12L95.77 75.12L121.23 57.66L103.77 83.12Z"/><path stroke="none" d="M95.77 83.12L121.23 108.58L103.77 83.12Z"/><path stroke="none" fill-opacity=".32" d="M95.77 83.12L121.23 108.58L95.77 91.12Z"/><path fill="none" stroke-width=".7" stroke-linejoin="round" d="M95.77 83.12L103.77 83.12L121.23 108.58L95.77 91.12Z"/><path stroke="none" d="M95.77 83.12L70.31 108.58L95.77 91.12Z"/><path stroke="none" fill-opacity=".32" d="M95.77 83.12L70.31 108.58L87.77 83.12Z"/><path fill="none" stroke-width=".7" stroke-linejoin="round" d="M95.77 83.12L95.77 91.12L70.31 108.58L87.77 83.12Z"/><path stroke="none" d="M95.77 83.12L70.31 57.66L87.77 83.12Z"/><path stroke="none" fill-opacity=".32" d="M95.77 83.12L70.31 57.66L95.77 75.12Z"/><path fill="none" stroke-width=".7" stroke-linejoin="round" d="M95.77 83.12L87.77 83.12L70.31 57.66L95.77 75.12Z"/><path stroke="none" d="M95.77 83.12L95.77 31.12L88.35 75.7Z"/><path stroke="none" fill-opacity=".32" d="M95.77 83.12L95.77 31.12L103.19 75.7Z"/><path fill="none" stroke-width=".7" stroke-linejoin="round" d="M95.77 83.12L88.35 75.7L95.77 31.12L103.19 75.7Z"/><path stroke="none" d="M95.77 83.12L147.77 83.12L103.19 75.7Z"/><path stroke="none" fill-opacity=".32" d="M95.77 83.12L147.77 83.12L103.19 90.54Z"/><path fill="none" stroke-width=".7" stroke-linejoin="round" d="M95.77 83.12L103.19 75.7L147.77 83.12L103.19 90.54Z"/><path stroke="none" d="M95.77 83.12L95.77 135.12L103.19 90.54Z"/><path stroke="none" fill-opacity=".32" d="M95.77 83.12L95.77 135.12L88.35 90.54Z"/><path fill="none" stroke-width=".7" stroke-linejoin="round" d="M95.77 83.12L103.19 90.54L95.77 135.12L88.35 90.54Z"/><path stroke="none" d="M95.77 83.12L43.77 83.12L88.35 90.54Z"/><path stroke="none" fill-opacity=".32" d="M95.77 83.12L43.77 83.12L88.35 75.7Z"/><path fill="none" stroke-width=".7" stroke-linejoin="round" d="M95.77 83.12L88.35 90.54L43.77 83.12L88.35 75.7Z"/><path stroke="none" d="M95.77 1.12L100.77 13.12L95.77 10.12L90.77 13.12Z"/><circle fill="none" cx="95.77" cy="83.12" r="6.5" stroke-width="1.3"/><circle stroke="none" cx="95.77" cy="83.12" r="3"/></g></svg>
