<?xml version="1.0" encoding="UTF-8"?>
<svg id="_Слой_2" data-name="Слой 2" xmlns="http://www.w3.org/2000/svg" xmlns:xlink="http://www.w3.org/1999/xlink" viewBox="0 0 191.54 166.23">
  <defs>
    <style>
      .cls-1 {
        fill: none;
      }

      .cls-2 {
        fill: #202020;
      }

      .cls-3 {
        clip-path: url(#clippath);
      }
    </style>
    <clipPath id="clippath">
      <polygon class="cls-1" points="143.96 .35 48.19 0 0 82.76 47.58 165.88 143.35 166.23 191.54 83.47 143.96 .35"/>
    </clipPath>
  </defs>
  <g id="Layer_1" data-name="Layer 1">
    <g class="cls-3">
      <g>
        <path class="cls-2" d="M.07,26.45v-.03s0-.1-.01-.14v.17Z"/>
        <path class="cls-2" d="M1.82,73.97v-.02l-.13-.42c-.18-2.18.19-1.17-.06-3.59.02.96-.19.46-.15-.73l.08.3c-.01-.66-.05-.87-.04-1.3.05.39.13.2.12-.76l.11.64-.16-1.81c.09-1.39-.02-3.61.11-4.18,0,0,.06-3.01-.08-3.7.08.61.12-1.05.21-.59-.09-.77-.16-3.08-.07-3.99v.18c.12-3.41-.12-5.83,0-8.88-.11.14-.05-1.47-.18-1.08-.13-3.16.26-5.76-.14-6.91-.02-1.44.09-1.7.12-2.45l.02.34c-.04-2.69-.04-3.48-.04-5.48-.04-.99-.22-1.16-.18-2.95.07.59.06-.15.06-.82.01.43.04.56.09-.32-.02-.13-.04-.32-.05-.49,0-.01,0-.05.01-.02-.02-1.12-.05-.92-.06-.41-.01,0-.02.05-.05.18.09-1.16,0-3.23.12-3.37-.02-3.36-.15-5.76-.21-8.56.07-.32.13.34.15,1.15l-.02-1.98c.09.01.06,1.14.07,1.74.15-2.36-.15-4.87-.01-7.64l-.07-.57v-.16s.05-.15.05-.56l-.04.56s-.09-.61-.11-1.02c.08-.4.19.02.19-1.35.07-1.09-.05-3.08-.09-4.51-.01.77-.06.53-.08.19,0-.68.08-1.08.05-1.6l.08-.05c-.08,0-.08-1.83-.13-2.07.08-.39.07,1.07.13,1.24-.01-2.75,0-1.37-.01-4.12-.08-1.47-.11.26-.21-.44-.01-1.29-.09-2.55-.02-4.04l-.11.47c-.02-.74-.04-1.39-.04-1.99H.06v4.58c.05,2.12.09,4.47.12,7.39C.15,1.54.11,3.85.06,6.13.01,8.65-.02,11.12.01,15.18c-.01,3.29.02,6.75.05,10.02,0,.41.01.82.01,1.23.15,1.71,0,4.74.13,6.77l-.09.78c.05.7.08,1.52.04,2.22l-.02-.05c.06,1.04.02,2.21.06,2.74l-.04-.05v1.26s-.02-.21-.02-.21c.07,1.81.08,3.69.05,5.35l.11-.14c-.12,3.53.09,4.82-.05,8.02l-.02-.05c.27,4.03-.18,6.37.07,10.52-.02-.52-.05.22-.07.19.02,1.91.05,3.96.25,3.98-.01,1.39-.07,1.14-.14,1.32.08,0,.12,1.21.13,2.28l-.04-.49.02,3.11.18-.61c-.05,1.65-.21.42-.16,2l.14-.02c-.04,2.29-.25,3.64-.34,5.85-.06,9.2.29,19.09.05,27.66l-.11.37c-.15.16.22,2.36.08,2.69l.07.99c-.02.28-.06.88-.08.37-.01.92.01.95.06,1.6l-.09.99c-.07,3.64.11,6.73.07,10.55-.19,4.6-.01,13.25.09,18.22.22,7.01-.37,15.16-.12,22.33-.02.22.02.83.04.83v6.55s-.01,2.62,0,5.79h1.24c.05-2.49.02-4.33-.11-6.31.2-.4.02-2.95.09-3.79v.08c-.14-2.2.14-4.52,0-6.63.01.08.07.12.08.61-.04-1.55-.08-3.64.05-3.76-.04-3.68.02-8.81-.18-11.17l.04.16c-.13-1.35-.01-1.73-.08-3.24.01-.06.02-.14.03-.16,0,.04,0,.09,0,.12,0-.08,0-.11,0-.12,0,0,0,0,0,0-.13-1.46-.02-4.27-.08-5.45l.08-.07v-2.91s-.04,1.09-.04,1.09c-.21-.37.14-2.2,0-4.32.02-1.97-.44-4-.34-6.05-.02-.16-.02-.25-.02-.28.06.13.16.68.11-.33.12-.05.07.69.16.32-.06-1.44.11-2.36.04-4.13l.08-.07c-.15-2.32.12-4.37-.04-5.9-.07-2.39.26-1.6.09-4.09l.12-.96c.01-1.07-.15-.76-.09-1.94.08.07.06-1.49.13-.8.12-2.67-.16-5.41.04-8.92-.14-.76-.06-2.53-.16-3.1.06-.09.01-3.55.14-1.56.01.18.01.47-.01.46l.08.23c.16-2-.08-3.64-.06-5.62-.02.59-.02,1.37-.08.84v-1.84s.08.39.08.39l.05-2.75-.09.39c.05-1.35.2-1.81.07-3.34-.07-.68-.12,1.28-.14-.14.06-1.79.15-4.48.18-6.78-.11.22-.09-.4-.12-1.03l.08-.07c-.12-2.42.2-.9.11-3.29Z"/>
        <path class="cls-2" d="M7.34,5.32s.04-.15.04-.56l-.04.56Z"/>
        <path class="cls-2" d="M7.39,145.99s0,.09,0,.13c0-.09,0-.12,0-.13Z"/>
        <path class="cls-2" d="M7.74,73.96h0s-.12-.43-.12-.43c-.18-2.18.18-1.17-.06-3.59.01.96-.2.46-.15-.73l.08.3c-.02-.66-.06-.87-.04-1.3.05.39.12.2.11-.76l.11.64-.15-1.81c.09-1.39-.02-3.61.09-4.18,0,0,.06-2.74-.06-3.58.07.19.11-.95.19-.76-.08-.82-.16-3.04-.06-3.93v.18c.11-3.41-.13-5.83-.01-8.88-.09.14-.05-1.47-.18-1.08-.13-3.16.27-5.76-.13-6.91-.02-1.44.09-1.7.11-2.45l.02.34c-.04-2.69-.04-3.48-.02-5.48-.04-.99-.22-1.16-.19-2.95.08.59.07-.15.07-.82.01.43.04.56.08-.32-.02-.13-.04-.32-.05-.49.01-.01.01-.05.02-.02-.04-1.12-.06-.92-.07-.41,0,0-.01.01-.02.04.07-1.18-.02-3.09.11-3.23-.04-3.36-.16-5.76-.21-8.56.06-.32.12.34.15,1.15l-.02-1.98c.09.01.05,1.14.07,1.74.15-2.36-.15-4.87-.01-7.64l-.08-.57v-.16s-.07-.61-.09-1.02c.08-.4.2.02.19-1.35.08-1.09-.04-3.08-.08-4.51-.01.77-.06.53-.09.19,0-.68.08-1.08.05-1.6l.09-.05s.01-.01.02-.02h-.02c-.08-.15-.09-1.81-.14-2.05.08-.39.07,1.07.13,1.24,0-2.75,0-1.37-.01-4.12-.08-1.47-.11.26-.2-.44-.02-1.29-.09-2.55-.04-4.04l-.09.47c-.02-.75-.05-1.39-.05-1.99h-1.09c.05,3.45.18,6.82.22,11.96-.05,7.47-.25,9.45-.16,17.18-.01,3.68.02,7.58.05,11.18,0-.03,0-.06,0-.08v.1s0,.03,0,.04c.15,1.71.01,4.74.13,6.77l-.08.78c.05.7.07,1.52.02,2.22l-.02-.05c.07,1.04.02,2.21.06,2.74l-.02-.05v1.26s-.02-.21-.02-.21c.07,1.81.07,3.69.04,5.35l.11-.14c-.12,3.53.09,4.82-.04,8.02l-.02-.05c.27,4.03-.19,6.37.07,10.52-.04-.52-.06.22-.08.19.04,1.91.05,3.96.25,3.98,0,1.39-.06,1.14-.14,1.32.09,0,.13,1.21.13,2.28l-.04-.49.04,3.11.16-.61c-.05,1.65-.2.42-.16,2l.14-.02c-.02,2.29-.23,3.64-.34,5.85-.06,9.2.29,19.09.06,27.66l-.11.37c-.15.16.22,2.36.08,2.69l.07.99c-.04.28-.06.88-.09.37,0,.92.02.95.07,1.6l-.09.99c-.08,3.64.11,6.73.07,10.55-.2,4.6-.02,13.25.08,18.22.22,7.01-.37,15.16-.12,22.33-.02.22.02.83.05.83l-.02,6.55s0,2.62.01,5.79h1.24c.05-2.49.04-4.34-.09-6.31.2-.4.01-2.95.08-3.79v.08c-.14-2.2.14-4.52.01-6.63.01.06.05.09.06.32-.01-1.5-.05-3.36.06-3.46-.04-3.68.02-8.81-.16-11.17l.04.16c-.13-1.35-.02-1.73-.08-3.24.01-.07.02-.16.02-.16-.13-1.46-.01-4.27-.07-5.45l.08-.07-.02-2.91v1.09c-.23-.37.12-2.2-.02-4.32.04-1.97-.44-4-.34-6.05-.02-.16-.02-.25-.02-.28.06.13.16.68.11-.33.12-.05.07.69.16.32-.05-1.44.12-2.36.04-4.13l.09-.07c-.16-2.32.12-4.37-.04-5.9-.07-2.39.26-1.6.08-4.09l.12-.96c.02-1.07-.14-.76-.08-1.94.07.07.06-1.49.13-.8.12-2.67-.16-5.41.04-8.92-.15-.76-.06-2.53-.18-3.1.07-.09.01-3.55.15-1.56.01.18.01.47-.01.46l.08.23c.16-2-.09-3.64-.07-5.62-.02.59-.01,1.37-.07.84v-1.84s.08.39.08.39l.04-2.75-.08.39c.05-1.35.2-1.81.07-3.34-.07-.68-.12,1.28-.15-.14.06-1.79.15-4.48.18-6.78-.09.22-.09-.4-.12-1.03l.09-.07c-.12-2.43.19-.89.09-3.3Z"/>
        <path class="cls-2" d="M11.93,27.14v-.03s0-.1-.01-.14v.17Z"/>
        <path class="cls-2" d="M13.67,74.66h0s-.13-.44-.13-.44c-.18-2.18.19-1.17-.06-3.59.02.96-.19.46-.15-.73l.08.3c-.01-.66-.05-.87-.04-1.3.05.39.13.2.12-.76l.11.64-.16-1.8c.09-1.4-.02-3.62.11-4.19,0,0,.06-2.75-.07-3.59.07.23.11-.94.19-.75-.08-.83-.15-3.03-.06-3.93v.18c.12-3.41-.13-5.83,0-8.88-.11.14-.05-1.47-.18-1.08-.13-3.16.26-5.76-.14-6.91-.02-1.44.09-1.7.12-2.45l.02.34c-.04-2.69-.04-3.48-.04-5.48-.04-.99-.22-1.15-.18-2.94.07.57.06-.15.06-.83.01.43.04.56.09-.32-.02-.12-.04-.32-.06-.49.01-.01.01-.05.02-.02-.02-1.12-.05-.92-.06-.41-.01,0-.02.05-.05.18.09-1.16-.01-3.23.12-3.37-.02-3.36-.15-5.76-.21-8.56.07-.32.13.34.15,1.15l-.02-1.98c.09.01.06,1.14.07,1.74.15-2.36-.15-4.87-.01-7.64l-.07-.57v-.16s.05-.15.05-.56l-.04.55s-.09-.61-.1-1.02c.08-.4.19.02.19-1.35.07-1.09-.05-3.08-.09-4.51-.01.77-.06.53-.08.19,0-.68.08-1.08.05-1.6l.08-.05c-.08,0-.08-1.83-.13-2.06.08-.4.07,1.05.13,1.23-.01-2.75,0-1.37-.01-4.12-.08-1.47-.11.26-.21-.43-.01-1.3-.09-2.56-.02-4.05l-.11.47c-.04-1.04-.05-1.91-.05-2.68h-1.08c.02,3.69.16,7.18.21,12.65-.05,7.47-.23,9.45-.16,17.18-.01,3.7.04,7.63.06,11.25.14,1.71,0,4.74.13,6.77l-.09.78c.05.7.08,1.52.04,2.22l-.02-.05c.06,1.04.02,2.22.05,2.74l-.02-.05v1.26s-.02-.21-.02-.21c.07,1.81.07,3.69.05,5.35l.11-.14c-.12,3.53.09,4.82-.05,8.02l-.02-.05c.27,4.03-.18,6.37.07,10.52-.02-.52-.05.22-.07.19.02,1.91.05,3.96.25,3.98-.01,1.39-.07,1.14-.14,1.32.08,0,.12,1.21.13,2.29l-.04-.5.02,3.11.18-.61c-.05,1.65-.21.42-.16,2h.13c-.02,2.27-.23,3.62-.33,5.83-.06,9.2.29,19.09.05,27.66l-.11.37c-.15.18.22,2.36.08,2.69l.07.99c-.02.28-.06.88-.08.37-.01.92.01.95.06,1.62l-.09.98c-.07,3.64.11,6.73.07,10.55-.19,4.6-.01,13.25.09,18.24.22,7-.37,15.15-.12,22.32-.02.23.02.83.04.83l-.02,6.57s0,2.25.01,5.09h1.26c.02-2.14,0-3.83-.12-5.62.2-.4.02-2.95.09-3.79v.08c-.14-2.19.14-4.52,0-6.63.01.08.07.13.07.61-.02-1.53-.07-3.64.05-3.76-.02-3.68.04-8.8-.16-11.17l.04.16c-.13-1.33-.01-1.73-.08-3.23.01-.06.02-.15.03-.17,0,.04,0,.09,0,.12,0-.08,0-.11,0-.12,0,0,0,0,0,0-.13-1.46-.02-4.27-.08-5.45l.08-.07v-2.91s-.04,1.09-.04,1.09c-.21-.37.14-2.2,0-4.31.02-1.98-.44-4.01-.34-6.06-.02-.16-.02-.25-.02-.28.06.13.16.68.11-.33.12-.05.07.69.16.32-.06-1.44.11-2.36.04-4.13l.08-.07c-.15-2.32.12-4.37-.04-5.9-.07-2.39.26-1.6.09-4.09l.12-.96c.01-1.07-.15-.76-.09-1.94.08.07.06-1.49.13-.8.12-2.67-.16-5.41.04-8.92-.14-.76-.06-2.53-.16-3.1.06-.09.01-3.53.14-1.56.01.18.01.47-.01.46l.08.23c.16-2-.08-3.64-.06-5.62-.04.59-.02,1.37-.08.84v-1.84s.08.39.08.39l.05-2.75-.09.39c.05-1.35.2-1.81.07-3.34-.07-.68-.12,1.28-.14-.14.06-1.79.15-4.48.18-6.77-.11.21-.09-.41-.12-1.04l.08-.07c-.12-2.43.2-.89.11-3.29Z"/>
        <path class="cls-2" d="M19.19,6.02s.04-.15.04-.56l-.04.56Z"/>
        <path class="cls-2" d="M19.25,146.69s0,.09,0,.13c0-.09,0-.12,0-.13Z"/>
        <path class="cls-2" d="M19.6,74.65l-.12-.43c-.18-2.18.18-1.17-.06-3.59.01.96-.2.46-.15-.73l.08.3c-.02-.66-.06-.87-.04-1.3.05.39.12.2.11-.76l.11.64-.15-1.8c.09-1.4-.02-3.62.09-4.19,0,0,.06-3.01-.07-3.7.08.61.11-1.05.21-.57-.09-.78-.18-3.08-.07-4v.18c.11-3.41-.13-5.83-.01-8.88-.09.14-.05-1.47-.18-1.08-.13-3.16.27-5.76-.13-6.91-.02-1.44.09-1.7.11-2.45l.02.34c-.04-2.69-.04-3.48-.02-5.48-.05-.99-.22-1.15-.19-2.94.08.57.07-.15.07-.83.01.43.04.56.08-.32-.02-.12-.04-.32-.05-.49,0-.01.01-.05.02-.02-.04-1.12-.06-.92-.07-.41-.01,0-.02.05-.04.18.09-1.16-.01-3.23.12-3.37-.04-3.36-.16-5.76-.21-8.56.06-.32.12.34.15,1.15l-.02-1.98c.09.01.05,1.14.07,1.74.15-2.36-.15-4.87-.01-7.64l-.08-.57v-.16s-.08-.61-.09-1.02c.08-.4.2.02.19-1.35.08-1.09-.04-3.08-.08-4.51-.01.77-.06.53-.09.19,0-.68.08-1.08.05-1.6l.09-.05s.01-.01.02-.02h-.02c-.08-.15-.09-1.81-.14-2.04.08-.4.07,1.05.13,1.23,0-2.75,0-1.37-.01-4.12-.08-1.47-.11.26-.2-.43-.02-1.3-.11-2.56-.04-4.05l-.09.47c-.04-1.04-.06-1.91-.06-2.68h-1.08c.04,3.7.18,7.18.22,12.65-.05,7.47-.25,9.45-.16,17.18-.01,3.68.02,7.59.05,11.19,0-.03,0-.06,0-.09v.11s0,.02,0,.04c.15,1.71,0,4.74.13,6.77l-.08.78c.05.7.07,1.52.02,2.22l-.02-.05c.07,1.04.02,2.22.06,2.74l-.02-.05v1.26s-.02-.21-.02-.21c.07,1.81.07,3.69.04,5.35l.11-.14c-.12,3.53.09,4.82-.04,8.02l-.02-.05c.27,4.03-.19,6.37.07,10.52-.04-.52-.06.22-.08.19.04,1.91.05,3.96.25,3.98,0,1.39-.06,1.14-.14,1.32.09,0,.13,1.21.13,2.29l-.04-.5.04,3.11.16-.61c-.05,1.65-.2.42-.16,2h.14c-.02,2.27-.23,3.62-.34,5.83-.06,9.2.29,19.09.05,27.66l-.09.37c-.15.18.22,2.36.08,2.69l.07.99c-.04.28-.06.88-.09.37,0,.92.02.95.07,1.62l-.09.98c-.08,3.64.11,6.73.07,10.55-.2,4.6-.02,13.25.08,18.24.22,7-.37,15.15-.12,22.32-.02.23.02.83.05.83l-.02,6.57s0,2.25.01,5.09h1.25c.04-2.15.01-3.83-.11-5.62.2-.4.01-2.95.08-3.79v.08c-.14-2.19.14-4.52.01-6.63.01.08.07.13.07.61-.02-1.53-.07-3.64.05-3.76-.04-3.68.02-8.8-.16-11.17l.04.16c-.13-1.33-.02-1.73-.08-3.23.01-.07.02-.18.02-.18-.13-1.46-.02-4.27-.07-5.45l.08-.07-.02-2.91v1.09c-.23-.37.12-2.2-.02-4.31.04-1.98-.44-4.01-.34-6.06-.02-.16-.02-.25-.02-.28.06.13.16.68.11-.33.12-.05.07.69.16.32-.05-1.44.12-2.36.04-4.13l.09-.07c-.16-2.32.12-4.37-.04-5.9-.08-2.39.26-1.6.08-4.09l.12-.96c.02-1.07-.14-.76-.08-1.94.07.07.06-1.49.13-.8.12-2.67-.16-5.41.04-8.92-.15-.76-.06-2.53-.18-3.1.07-.09.01-3.53.15-1.56.01.18.01.47-.01.46l.08.23c.16-2-.09-3.64-.07-5.62-.02.59-.01,1.37-.07.84v-1.84s.08.39.08.39l.04-2.75-.08.39c.05-1.35.2-1.81.07-3.34-.07-.68-.13,1.28-.15-.14.06-1.79.15-4.48.18-6.77-.09.21-.09-.41-.12-1.04l.09-.07c-.13-2.43.19-.89.09-3.3Z"/>
        <path class="cls-2" d="M23.78,26.8v-.03s0-.1-.01-.14v.17Z"/>
        <path class="cls-2" d="M25.53,74.31h0s-.13-.43-.13-.43c-.18-2.18.19-1.17-.06-3.59.02.96-.19.44-.15-.73l.08.29c-.01-.64-.05-.87-.04-1.3.05.39.13.21.12-.75l.11.64-.16-1.81c.09-1.39-.02-3.62.11-4.19,0,0,.06-3-.08-3.69.08.6.12-1.05.21-.59-.09-.77-.16-3.08-.07-4v.18c.12-3.41-.13-5.82,0-8.87-.11.14-.05-1.47-.18-1.08-.13-3.16.26-5.77-.14-6.91-.02-1.44.09-1.71.12-2.45l.02.34c-.04-2.69-.04-3.48-.04-5.48-.04-1.01-.22-1.16-.18-2.95.07.59.06-.15.06-.82.01.42.04.56.09-.32-.02-.13-.05-.32-.06-.5.01,0,.01-.02.02-.02-.02-1.11-.05-.92-.06-.4-.01-.04-.02.01-.05.18.09-1.16-.01-3.23.12-3.37-.02-3.37-.15-5.77-.21-8.57.07-.32.13.34.15,1.16l-.02-1.99c.09.02.06,1.14.07,1.76.15-2.36-.15-4.87-.01-7.64l-.07-.57v-.16s.01,0,.01,0c.02,0,.03-.15.04-.56l-.04.56s-.09-.62-.1-1.03c.08-.39.19.04.19-1.35.07-1.08-.05-3.08-.09-4.49-.01.76-.06.52-.08.19,0-.69.08-1.08.05-1.62l.08-.05c-.08-.16-.09-1.83-.13-2.06.08-.39.07,1.07.13,1.24-.01-2.75,0-1.38-.01-4.13-.08-1.46-.11.27-.21-.43-.01-1.3-.09-2.56-.02-4.05l-.11.48c-.04-.89-.05-1.65-.05-2.34h-1.08c.04,3.57.18,7,.21,12.3-.05,7.47-.23,9.46-.16,17.19-.01,3.69.04,7.63.06,11.24.14,1.72,0,4.74.13,6.77l-.09.78c.05.7.08,1.52.04,2.22l-.02-.05c.06,1.04.02,2.22.05,2.74l-.02-.04v1.26s-.02-.22-.02-.22c.07,1.83.07,3.7.05,5.35l.11-.14c-.12,3.53.09,4.83-.05,8.02l-.02-.05c.27,4.04-.18,6.38.07,10.53-.02-.53-.05.22-.07.18.02,1.92.05,3.96.25,3.99-.01,1.39-.07,1.14-.14,1.31.08,0,.12,1.21.13,2.29l-.04-.5.02,3.13.18-.62c-.06,1.66-.21.42-.16,2.01l.13-.02c-.02,2.28-.23,3.63-.33,5.84-.06,9.21.29,19.1.05,27.67l-.11.37c-.15.16.22,2.36.08,2.69l.07.99c-.02.28-.06.87-.08.37-.01.91.01.94.06,1.6l-.09.99c-.07,3.63.11,6.72.07,10.55-.19,4.59-.01,13.24.09,18.22.22,7-.37,15.15-.12,22.32-.02.23.02.84.04.83l-.02,6.57s0,2.43.01,5.44h1.26c.04-2.32.01-4.07-.12-5.97.2-.39.02-2.95.08-3.79l.02.08c-.15-2.19.13-4.51-.01-6.63.01.08.07.13.07.61-.02-1.53-.07-3.64.05-3.76-.02-3.68.02-8.8-.16-11.15l.04.16c-.13-1.35-.01-1.74-.08-3.24.01-.07.02-.15.03-.16,0,.04,0,.09,0,.12,0-.08,0-.11,0-.13,0,0,0-.01,0-.01-.13-1.46-.02-4.26-.08-5.44l.08-.08v-2.9s-.04,1.09-.04,1.09c-.21-.39.14-2.21,0-4.32.02-1.98-.44-4-.34-6.06-.02-.16-.02-.25-.02-.28.05.13.16.69.11-.32.11-.05.07.68.16.3-.06-1.44.11-2.35.04-4.13l.08-.07c-.15-2.31.12-4.35-.04-5.9-.07-2.38.26-1.59.09-4.07l.12-.97c.01-1.05-.15-.76-.09-1.93.08.07.06-1.49.13-.81.12-2.66-.16-5.41.04-8.92-.14-.76-.06-2.53-.16-3.09.06-.09.01-3.55.14-1.56.01.16.01.47-.01.44l.08.23c.16-2-.08-3.63-.06-5.62-.04.59-.02,1.37-.08.85v-1.85s.08.39.08.39l.05-2.74-.09.37c.05-1.35.2-1.81.07-3.32-.07-.69-.12,1.26-.14-.15.06-1.79.15-4.47.18-6.77-.11.21-.09-.4-.12-1.04l.08-.07c-.12-2.42.2-.89.11-3.29Z"/>
        <path class="cls-2" d="M31.05,5.67s.04-.15.04-.56l-.04.56Z"/>
        <path class="cls-2" d="M31.1,146.34s0,.09,0,.13c0-.09,0-.12,0-.13Z"/>
        <path class="cls-2" d="M31.45,74.3l-.12-.42c-.18-2.18.18-1.17-.06-3.59.01.96-.2.44-.15-.73l.08.29c-.02-.64-.06-.87-.04-1.3.05.39.12.21.11-.75l.11.64-.15-1.81c.09-1.39-.02-3.62.09-4.19,0,0,.06-2.74-.06-3.58.07.23.09-.94.19-.75-.08-.82-.16-3.04-.06-3.94v.18c.11-3.41-.13-5.82-.01-8.87-.09.14-.05-1.47-.18-1.08-.13-3.16.27-5.77-.13-6.91-.02-1.44.09-1.71.11-2.45l.02.34c-.04-2.69-.04-3.48-.02-5.48-.05-1.01-.22-1.16-.19-2.95.08.59.07-.15.07-.82.01.42.04.56.08-.32-.02-.13-.04-.32-.05-.5,0,0,.01-.02.02-.02-.04-1.11-.06-.92-.07-.4-.01-.04-.02.01-.05.18.11-1.16,0-3.23.13-3.37-.04-3.37-.16-5.77-.21-8.57.06-.32.12.34.15,1.16l-.02-1.99c.09.02.05,1.14.07,1.76.15-2.36-.15-4.87-.01-7.64l-.08-.57v-.16s-.08-.62-.09-1.03c.08-.39.2.04.19-1.35.08-1.08-.04-3.08-.08-4.49-.01.76-.06.52-.09.19,0-.69.08-1.08.05-1.62l.09-.05c-.08-.16-.09-1.83-.14-2.06.08-.39.07,1.07.13,1.24,0-2.75,0-1.38-.01-4.13-.08-1.46-.11.27-.2-.43-.02-1.3-.11-2.56-.04-4.05l-.09.48c-.04-.89-.05-1.65-.06-2.34h-1.08c.04,3.57.18,7,.22,12.3-.05,7.47-.25,9.46-.16,17.19-.01,3.67.02,7.6.05,11.19,0-.03,0-.07,0-.1v.12s0,.02,0,.02c.15,1.72,0,4.74.13,6.77l-.08.78c.05.7.07,1.52.02,2.22l-.02-.05c.06,1.04.02,2.22.06,2.74l-.02-.04v1.26s-.02-.22-.02-.22c.07,1.83.07,3.7.04,5.35l.11-.14c-.12,3.53.09,4.83-.04,8.02l-.02-.05c.27,4.04-.19,6.38.07,10.53-.04-.53-.06.22-.08.18.04,1.92.05,3.96.25,3.99,0,1.39-.06,1.14-.14,1.31.09,0,.13,1.21.13,2.29l-.04-.5.04,3.13.16-.62c-.05,1.66-.2.42-.16,2.01l.14-.02c-.02,2.28-.23,3.63-.34,5.84-.06,9.21.29,19.1.05,27.67l-.09.37c-.15.16.22,2.36.08,2.69l.07.99c-.04.28-.06.87-.09.37,0,.91.02.94.07,1.6l-.09.99c-.08,3.63.11,6.72.07,10.55-.2,4.59-.02,13.24.08,18.22.22,7-.37,15.15-.12,22.32-.02.23.02.84.05.83l-.02,6.57s0,2.43.01,5.44h1.25c.04-2.32.02-4.09-.11-5.97.2-.39.01-2.95.08-3.79v.08c-.14-2.19.14-4.51.01-6.63.01.08.07.13.07.61-.02-1.53-.07-3.64.05-3.76-.04-3.68.02-8.8-.16-11.15l.04.16c-.13-1.35-.02-1.74-.08-3.24.01-.08.02-.18.02-.18-.13-1.46-.02-4.26-.07-5.44l.08-.08-.02-2.9v1.09c-.23-.39.12-2.21-.02-4.32.04-1.98-.44-4-.34-6.06-.02-.16-.02-.25-.02-.28.05.13.16.69.11-.32.12-.05.07.68.16.3-.06-1.44.12-2.35.04-4.13l.09-.07c-.16-2.31.12-4.35-.04-5.9-.08-2.38.26-1.59.08-4.07l.12-.97c.02-1.05-.14-.76-.08-1.93.07.07.06-1.49.13-.81.12-2.66-.16-5.41.04-8.92-.15-.76-.06-2.53-.18-3.09.07-.09.01-3.55.15-1.56.01.16.01.47-.01.44l.08.23c.16-2-.09-3.63-.07-5.62-.02.59-.01,1.37-.07.85v-1.85s.08.39.08.39l.04-2.74-.08.37c.05-1.35.2-1.81.07-3.32-.07-.69-.13,1.26-.15-.15.06-1.79.15-4.47.18-6.77-.09.21-.09-.4-.12-1.04l.09-.07c-.13-2.42.19-.89.09-3.3Z"/>
        <path class="cls-2" d="M35.64,27.49v-.03s0-.1-.01-.14v.17Z"/>
        <path class="cls-2" d="M37.26,74.57c-.18-2.18.19-1.17-.06-3.59.02.96-.19.46-.15-.73l.08.29c-.01-.64-.05-.87-.04-1.3.05.39.13.21.12-.75l.11.64-.16-1.81c.09-1.39-.02-3.62.11-4.19,0,0,.06-2.76-.07-3.59.07.25.11-.92.19-.74-.08-.82-.15-3.04-.06-3.94v.18c.12-3.41-.13-5.82,0-8.87-.11.14-.05-1.47-.18-1.08-.13-3.16.26-5.77-.14-6.91-.02-1.44.09-1.71.12-2.45l.02.34c-.04-2.69-.05-3.48-.04-5.48-.04-.99-.22-1.16-.18-2.95.07.59.06-.15.06-.82.01.42.04.56.09-.32-.02-.13-.05-.32-.06-.5.01,0,.01-.02.02-.02-.02-1.11-.05-.92-.06-.4-.01-.02-.02.01-.05.18.09-1.16-.01-3.23.12-3.37-.02-3.36-.15-5.77-.21-8.57.07-.32.13.34.15,1.16l-.02-1.99c.09.02.06,1.15.07,1.76.15-2.36-.15-4.87-.01-7.64l-.07-.57v-.16s.01,0,.01,0c.02-.01.03-.15.04-.56l-.04.56s-.09-.62-.1-1.03c.08-.39.19.04.19-1.35.07-1.08-.05-3.08-.09-4.49-.01.76-.06.52-.08.19,0-.69.08-1.08.05-1.62l.08-.05c-.08-.16-.09-1.83-.13-2.06.08-.39.07,1.07.13,1.24-.01-2.75-.01-1.38-.01-4.13-.09-1.46-.11.27-.21-.43-.01-1.3-.09-2.56-.02-4.05l-.11.48c-.04-1.21-.05-2.17-.05-3.03h-1.09c.04,3.83.18,7.34.22,12.99-.05,7.47-.23,9.46-.16,17.19-.01,3.69.04,7.63.06,11.24.14,1.72,0,4.74.13,6.77l-.09.78c.05.7.07,1.52.04,2.22l-.02-.05c.06,1.05.02,2.22.05,2.74l-.02-.04v1.26s-.02-.22-.02-.22c.07,1.83.07,3.7.05,5.35l.09-.13c-.11,3.52.11,4.82-.04,8.01l-.02-.05c.27,4.04-.18,6.38.07,10.53-.02-.52-.05.22-.07.18.02,1.92.04,3.96.25,3.99-.01,1.39-.07,1.14-.14,1.31.08,0,.12,1.21.13,2.29l-.04-.5.02,3.13.18-.61c-.06,1.65-.21.41-.16,2l.13-.02c-.02,2.29-.23,3.63-.33,5.84-.06,9.21.29,19.1.05,27.67l-.11.37c-.15.16.22,2.36.08,2.69l.07.99c-.02.28-.06.87-.09.37,0,.92.02.94.07,1.6l-.09.99c-.07,3.63.11,6.72.07,10.55-.19,4.59-.01,13.24.09,18.22.22,7-.37,15.16-.13,22.32-.01.23.04.84.05.83l-.02,6.57s0,2.07.01,4.75h1.26c.02-1.99,0-3.58-.12-5.28.2-.39.02-2.95.08-3.79l.02.08c-.15-2.19.13-4.51-.01-6.63.01.06.05.11.06.33-.01-1.5-.05-3.37.06-3.46-.02-3.69.02-8.81-.16-11.17l.04.16c-.13-1.35-.01-1.74-.08-3.24.01-.07.02-.14.03-.16,0,.04,0,.09,0,.12,0-.08,0-.11,0-.13,0,0,0-.01,0-.01-.13-1.45-.02-4.26-.08-5.44l.08-.08-.02-2.9v1.09c-.22-.39.13-2.21-.01-4.32.02-1.98-.44-4-.35-6.06-.09-.97.16.87.09-.6.11-.05.07.68.16.3-.06-1.44.11-2.35.04-4.12l.08-.08c-.15-2.31.12-4.35-.04-5.9-.07-2.38.26-1.59.09-4.07l.12-.97c.01-1.05-.15-.76-.09-1.93.08.07.06-1.49.13-.8.12-2.67-.16-5.42.04-8.93-.14-.76-.06-2.53-.16-3.09.06-.09.01-3.55.14-1.56.01.16.01.47-.01.44l.08.23c.16-2-.08-3.63-.06-5.62-.04.6-.02,1.37-.08.85v-1.85s.08.39.08.39l.05-2.74-.09.37c.05-1.33.2-1.81.07-3.32-.07-.69-.12,1.28-.14-.14.06-1.8.15-4.48.18-6.78-.11.21-.09-.4-.12-1.03l.08-.08c-.12-2.42.2-.89.09-3.3l.07.21-.19-.63Z"/>
        <path class="cls-2" d="M42.91,6.36s.03-.15.04-.56l-.04.56Z"/>
        <path class="cls-2" d="M42.96,147.03s0,.09,0,.13c0-.09,0-.12,0-.13Z"/>
        <path class="cls-2" d="M43.31,74.99l-.12-.42c-.18-2.18.18-1.17-.06-3.59.01.96-.2.46-.15-.73l.08.29c-.02-.64-.06-.87-.04-1.3.05.39.12.21.11-.75l.11.64-.15-1.81c.09-1.39-.02-3.62.09-4.19,0,0,.06-3-.07-3.69.08.6.11-1.05.21-.59-.09-.77-.18-3.08-.07-4v.18c.11-3.41-.13-5.82-.01-8.87-.09.14-.05-1.47-.18-1.08-.13-3.16.27-5.77-.13-6.91-.02-1.44.09-1.71.11-2.45l.02.34c-.04-2.69-.04-3.48-.02-5.48-.05-.99-.22-1.16-.19-2.95.08.59.07-.15.07-.82.01.42.04.56.08-.32-.02-.13-.04-.32-.05-.5v-.02c-.01-1.11-.04-.92-.05-.4-.01-.02-.02,0-.04.09.09-1.17-.01-3.15.12-3.29-.04-3.36-.16-5.77-.21-8.57.06-.32.12.34.15,1.16l-.04-1.99c.11.02.06,1.15.08,1.76.15-2.36-.15-4.87-.01-7.64l-.08-.57v-.16s-.08-.62-.09-1.03c.08-.39.19.04.19-1.35.08-1.08-.04-3.08-.08-4.49-.01.76-.06.52-.09.19,0-.69.08-1.08.05-1.62l.09-.05c-.08-.16-.09-1.83-.14-2.06.08-.39.07,1.07.13,1.24,0-2.75,0-1.38-.01-4.13-.08-1.46-.11.27-.2-.43-.02-1.3-.11-2.56-.04-4.05l-.09.48c-.04-1.21-.06-2.17-.06-3.03h-1.08c.02,3.83.16,7.35.22,12.99-.05,7.47-.25,9.46-.16,17.19-.01,3.67.02,7.6.05,11.2,0-.04,0-.07,0-.1v.13s0,0,0,.01c.15,1.72,0,4.74.13,6.77l-.08.78c.04.7.07,1.52.02,2.22l-.02-.05c.06,1.05.02,2.22.06,2.74l-.02-.04v1.26s-.02-.22-.02-.22c.07,1.83.07,3.7.04,5.35l.11-.13c-.12,3.52.09,4.82-.04,8.01l-.02-.05c.27,4.04-.19,6.38.07,10.53-.04-.52-.06.22-.08.18.04,1.92.05,3.96.25,3.99,0,1.39-.06,1.14-.14,1.31.09,0,.13,1.21.13,2.29l-.04-.5.04,3.13.16-.61c-.05,1.65-.2.41-.16,2l.14-.02c-.02,2.29-.23,3.63-.34,5.84-.06,9.21.29,19.1.05,27.67l-.09.37c-.15.16.22,2.36.08,2.69l.07.99c-.04.28-.06.87-.09.37-.01.92.02.94.06,1.6l-.09.99c-.07,3.63.12,6.72.08,10.55-.2,4.59-.02,13.24.08,18.22.22,7-.37,15.16-.12,22.32-.02.23.02.84.05.83l-.02,6.57s0,2.07.01,4.75h1.25c.04-1.99.01-3.58-.11-5.28.2-.39.01-2.95.08-3.79v.08c-.14-2.19.14-4.51,0-6.63.02.06.06.11.07.33-.01-1.5-.05-3.37.06-3.46-.04-3.69.02-8.81-.16-11.17l.04.16c-.13-1.35-.02-1.74-.08-3.24.01-.08.02-.18.02-.18-.13-1.45-.02-4.26-.07-5.44l.08-.08-.02-2.9v1.09c-.23-.39.12-2.21-.02-4.32.02-1.98-.44-4-.34-6.06-.02-.16-.02-.25-.02-.28.05.13.16.69.11-.32.12-.05.07.68.16.3-.06-1.44.12-2.35.04-4.12l.09-.08c-.16-2.31.12-4.35-.04-5.9-.08-2.38.26-1.59.08-4.07l.12-.97c.02-1.05-.14-.76-.08-1.93.07.07.06-1.49.13-.8.12-2.67-.16-5.42.04-8.93-.15-.76-.06-2.53-.18-3.09.07-.09.01-3.55.15-1.56.01.16.01.47-.02.44l.09.23c.16-2-.09-3.63-.07-5.62-.02.6-.01,1.37-.07.85v-1.85s.08.39.08.39l.04-2.74-.08.37c.05-1.33.2-1.81.07-3.32-.07-.69-.13,1.28-.15-.14.06-1.8.15-4.48.18-6.78-.09.21-.09-.4-.12-1.03l.09-.08c-.13-2.42.19-.89.09-3.3Z"/>
        <path class="cls-2" d="M47.5,25.34v-.03s0-.1-.01-.14v.17Z"/>
        <path class="cls-2" d="M49.12,72.42c-.18-2.18.19-1.17-.06-3.59.02.96-.19.46-.15-.73l.08.3c-.01-.66-.05-.88-.04-1.31.05.39.13.21.12-.75l.11.64-.16-1.81c.09-1.39-.02-3.61.09-4.19,0,0,.06-3-.07-3.69.08.6.12-1.05.21-.59-.09-.77-.16-3.08-.07-3.99v.16c.12-3.41-.13-5.82,0-8.87-.11.14-.05-1.47-.18-1.08-.13-3.16.26-5.77-.14-6.91-.02-1.44.09-1.71.12-2.45l.02.34c-.04-2.69-.05-3.48-.04-5.48-.04-.99-.22-1.16-.18-2.95.07.59.06-.15.06-.82.01.43.04.56.09-.32-.02-.13-.05-.32-.06-.49.01-.01.01-.04.02-.04-.02-1.11-.05-.91-.06-.4-.01-.02-.02.01-.05.18.09-1.16-.01-3.23.12-3.37-.02-3.36-.16-5.77-.21-8.57.07-.3.13.34.15,1.16l-.02-1.99c.09.02.06,1.15.07,1.76.15-2.36-.15-4.87-.01-7.64l-.07-.57v-.16s.01,0,.01,0c.02-.01.03-.15.04-.56l-.04.55s-.09-.62-.1-1.02c.08-.39.19.04.19-1.33.07-1.09-.05-3.09-.09-4.51-.01.76-.06.52-.08.19,0-.68.08-1.08.05-1.6l.08-.05c-.08,0-.09-1.83-.13-2.07.08-.39.07,1.07.13,1.24-.01-2.75-.01-1.38-.01-4.13-.09-1.46-.11.27-.21-.43-.02-1.3-.09-2.55-.02-4.05l-.11.48c-.01-.3-.02-.6-.02-.88h-1.09c.06,3.08.16,6.25.2,10.84-.05,7.47-.23,9.46-.16,17.19-.01,3.69.04,7.63.06,11.24.14,1.72,0,4.74.13,6.77l-.09.8c.05.69.07,1.51.04,2.21l-.04-.05c.07,1.05.04,2.22.06,2.74l-.02-.04v1.26s-.02-.22-.02-.22c.07,1.83.07,3.7.05,5.35l.09-.13c-.11,3.52.11,4.82-.04,8.01l-.02-.04c.27,4.03-.19,6.37.07,10.52-.02-.52-.05.22-.07.18.02,1.92.04,3.96.25,3.99-.01,1.39-.07,1.14-.14,1.31.08,0,.12,1.21.13,2.29l-.04-.5.02,3.13.16-.61c-.05,1.65-.2.42-.15,2l.13-.02c-.02,2.29-.23,3.63-.33,5.84-.06,9.21.29,19.1.05,27.67l-.11.37c-.15.16.22,2.36.08,2.69l.07.99c-.02.28-.06.87-.09.37,0,.92.02.95.07,1.6l-.09.99c-.07,3.63.11,6.72.07,10.55-.19,4.6-.01,13.24.08,18.22.23,7.01-.37,15.16-.12,22.32-.01.23.04.84.05.83l-.02,6.57s-.01,3.27.02,6.91h1.23c.06-3.08.06-5.16-.09-7.42.2-.4.02-2.96.08-3.79l.02.07c-.15-2.19.13-4.51-.01-6.63.01.06.05.11.06.33-.01-1.5-.05-3.37.06-3.46-.02-3.68.02-8.81-.16-11.17l.04.16c-.13-1.35-.01-1.74-.08-3.24.01-.06.02-.14.03-.15,0,.04,0,.08,0,.12,0-.07,0-.1,0-.12,0,0,0,0,0,0-.13-1.46-.02-4.27-.08-5.45l.08-.08-.02-2.9v1.09c-.22-.39.13-2.2-.01-4.32.02-1.98-.46-4-.35-6.06-.09-.97.16.87.09-.6.11-.05.07.68.15.3-.05-1.43.12-2.35.05-4.12l.08-.08c-.15-2.31.12-4.35-.04-5.9-.07-2.38.26-1.59.09-4.07l.12-.97c.01-1.05-.15-.76-.09-1.93.08.07.06-1.49.13-.8.12-2.67-.16-5.42.04-8.93-.14-.76-.06-2.53-.16-3.09.06-.09.01-3.55.14-1.56.01.16.01.47-.01.44l.08.25c.16-2-.08-3.64-.06-5.63-.04.6-.02,1.37-.08.85v-1.84s.08.37.08.37l.05-2.74-.09.37c.05-1.33.2-1.81.07-3.32-.07-.68-.12,1.28-.14-.14.06-1.8.15-4.48.18-6.78-.11.21-.09-.4-.12-1.03l.08-.08c-.12-2.42.2-.89.09-3.3l.07.21-.19-.63Z"/>
        <path class="cls-2" d="M54.76,4.21s.04-.15.04-.56l-.04.56Z"/>
        <path class="cls-2" d="M54.82,144.88s0,.09,0,.13c0-.09,0-.12,0-.13Z"/>
        <path class="cls-2" d="M55.17,72.84l-.12-.42c-.18-2.18.18-1.17-.06-3.59.01.96-.2.46-.15-.73l.08.3c-.02-.66-.06-.88-.04-1.31.05.39.12.21.11-.75l.11.64-.15-1.81c.09-1.39-.02-3.61.09-4.19,0,0,.06-2.76-.06-3.59.07.26.11-1.11.19-.68-.08-.77-.16-3.08-.06-3.99v.16c.11-3.41-.13-5.82-.01-8.87-.09.14-.05-1.47-.18-1.08-.13-3.16.27-5.77-.14-6.91-.01-1.44.11-1.71.12-2.45l.02.34c-.04-2.69-.04-3.48-.02-5.48-.05-.99-.23-1.16-.19-2.95.08.59.06-.15.06-.82.01.43.05.56.09-.32-.02-.13-.04-.32-.05-.49,0-.01.01-.04.01-.04-.02-1.11-.05-.91-.06-.4-.01-.02-.02.01-.05.18.11-1.16,0-3.23.13-3.37-.04-3.36-.16-5.77-.21-8.57.06-.3.12.34.14,1.16l-.02-1.99c.09.02.06,1.15.08,1.76.15-2.36-.15-4.87-.01-7.64l-.08-.57v-.16s-.08-.62-.09-1.03c.08-.39.19.04.19-1.33.08-1.09-.04-3.09-.08-4.51-.01.76-.06.52-.09.19,0-.68.08-1.08.05-1.6l.09-.05s.01-.01.02-.02h-.02c-.08-.15-.09-1.81-.14-2.05.08-.39.07,1.07.13,1.24-.01-2.75,0-1.38-.01-4.13-.08-1.46-.11.27-.2-.43-.02-1.3-.11-2.55-.04-4.05l-.09.48c-.01-.3-.02-.6-.02-.88h-1.09c.05,3.08.15,6.26.2,10.84-.06,7.47-.25,9.46-.16,17.19-.02,3.68.02,7.61.05,11.21,0-.04,0-.08,0-.11v.13s0,0,0,0c.15,1.72,0,4.74.13,6.77l-.08.8c.04.69.07,1.51.02,2.21l-.02-.05c.06,1.05.02,2.22.06,2.74l-.02-.04v1.26s-.02-.22-.02-.22c.06,1.83.07,3.7.04,5.35l.11-.13c-.12,3.52.09,4.82-.04,8.01l-.02-.04c.27,4.03-.19,6.37.07,10.52-.04-.52-.06.22-.08.18.04,1.92.05,3.96.25,3.99,0,1.39-.06,1.14-.14,1.31.09,0,.13,1.21.13,2.29l-.04-.5.04,3.13.16-.61c-.05,1.65-.2.42-.16,2l.14-.02c-.02,2.29-.23,3.63-.34,5.84-.06,9.21.29,19.1.05,27.67l-.09.37c-.15.16.22,2.36.08,2.69l.07.99c-.04.28-.06.87-.09.37-.01.92.02.95.06,1.6l-.09.99c-.07,3.63.12,6.72.08,10.55-.2,4.6-.02,13.24.08,18.22.22,7.01-.37,15.16-.12,22.32-.02.23.02.84.05.83l-.02,6.57s-.01,3.27.02,6.91h1.22c.06-3.09.07-5.16-.08-7.42.2-.4.01-2.96.08-3.79v.07c-.14-2.19.14-4.51,0-6.63.01.06.06.11.07.33-.01-1.5-.05-3.37.06-3.46-.04-3.68.02-8.81-.16-11.17l.04.16c-.13-1.35-.02-1.74-.08-3.24.01-.07.02-.16.02-.16-.13-1.46-.02-4.27-.07-5.45l.07-.08v-2.9s-.02,1.09-.02,1.09c-.22-.39.13-2.2-.01-4.32.02-1.98-.44-4-.34-6.06-.02-.16-.02-.25-.02-.28.05.13.16.69.11-.32.12-.05.07.68.16.3-.06-1.43.12-2.35.04-4.12l.09-.08c-.16-2.31.12-4.35-.04-5.9-.08-2.38.26-1.59.08-4.07l.12-.97c.02-1.05-.14-.76-.08-1.93.07.07.06-1.49.13-.8.12-2.67-.16-5.42.04-8.93-.15-.76-.06-2.53-.18-3.09.07-.09.01-3.55.15-1.56.01.16.01.47-.02.44l.09.25c.16-2-.09-3.64-.07-5.63-.02.6-.01,1.37-.08.85v-1.84s.09.37.09.37l.04-2.74-.08.37c.05-1.33.2-1.81.07-3.32-.07-.68-.13,1.28-.15-.14.06-1.8.15-4.48.18-6.78-.09.21-.09-.4-.12-1.03l.09-.08c-.13-2.42.19-.89.09-3.3Z"/>
        <path class="cls-2" d="M59.36,26.03v-.03s0-.1-.01-.14v.17Z"/>
        <path class="cls-2" d="M60.97,73.11c-.18-2.18.19-1.17-.06-3.59.02.96-.19.46-.15-.73l.08.3c-.01-.66-.05-.88-.04-1.31.05.4.13.21.12-.75l.11.64-.16-1.81c.09-1.39-.02-3.61.09-4.18,0,0,.06-2.74-.06-3.58.07.19.11-.95.19-.76-.08-.82-.15-3.04-.06-3.93v.18c.12-3.41-.13-5.83,0-8.88-.11.14-.05-1.47-.18-1.08-.13-3.16.26-5.76-.14-6.91-.02-1.44.09-1.71.12-2.45l.02.34c-.04-2.69-.05-3.48-.04-5.48-.04-.99-.22-1.16-.18-2.95.07.59.06-.15.06-.82.01.43.04.56.09-.32-.02-.13-.05-.32-.06-.49.01-.01.01-.05.02-.02-.02-1.12-.05-.92-.06-.41-.01-.02-.02.01-.05.18.09-1.16-.01-3.23.12-3.37-.02-3.36-.16-5.77-.21-8.56.07-.32.13.34.15,1.15l-.02-1.99c.09.02.06,1.15.07,1.76.15-2.36-.15-4.87-.01-7.64l-.07-.57v-.16s.01,0,.01,0c.02-.01.03-.16.04-.55l-.04.55s-.09-.61-.1-1.02c.08-.39.19.04.18-1.33.08-1.09-.04-3.09-.08-4.51-.01.76-.06.52-.08.19,0-.68.08-1.08.05-1.6l.08-.05c-.08,0-.09-1.83-.13-2.07.08-.39.07,1.07.13,1.24-.01-2.75-.01-1.38-.01-4.13-.09-1.46-.11.27-.21-.43-.02-1.29-.09-2.55-.02-4.04l-.11.47c-.02-.57-.04-1.09-.04-1.57h-1.09c.06,3.3.18,6.61.21,11.53-.05,7.48-.23,9.46-.16,17.19-.01,3.7.04,7.63.06,11.24.14,1.72,0,4.74.12,6.78l-.08.78c.05.69.07,1.51.04,2.21l-.04-.04c.07,1.04.04,2.21.06,2.74l-.02-.05v1.26s-.02-.21-.02-.21c.07,1.81.07,3.69.05,5.34l.09-.13c-.11,3.53.11,4.82-.04,8.01l-.02-.04c.27,4.03-.19,6.37.07,10.52-.02-.52-.05.22-.07.18.02,1.92.04,3.96.25,3.99-.01,1.39-.07,1.14-.14,1.32.08,0,.12,1.19.13,2.28l-.04-.49.02,3.11.16-.61c-.05,1.65-.2.42-.15,2l.13-.02c-.02,2.29-.23,3.63-.33,5.85-.06,9.2.29,19.09.05,27.66l-.11.37c-.15.16.22,2.36.08,2.69l.07.99c-.02.28-.06.87-.09.37,0,.92.02.95.07,1.6l-.09.99c-.07,3.63.11,6.72.07,10.55-.19,4.6-.01,13.25.08,18.22.23,7.01-.37,15.16-.12,22.32-.01.23.04.84.05.84l-.02,6.55s0,2.86.02,6.22h1.24c.05-2.72.04-4.65-.11-6.73.2-.4.02-2.96.08-3.79l.02.07c-.16-2.19.13-4.51-.01-6.63.01.06.05.11.06.33-.01-1.5-.05-3.37.06-3.46-.02-3.68.02-8.81-.16-11.17l.04.16c-.13-1.35-.01-1.74-.08-3.24.01-.06.02-.13.03-.15,0,.04,0,.08,0,.12,0-.07,0-.1,0-.12,0,0,0-.01,0-.01-.13-1.46-.02-4.27-.08-5.45l.08-.07-.02-2.91v1.09c-.22-.37.13-2.2-.01-4.32.02-1.98-.46-4-.35-6.05-.09-.98.16.85.09-.61.11-.05.07.69.15.3-.05-1.43.12-2.35.05-4.12l.08-.07c-.15-2.32.12-4.37-.04-5.9-.07-2.39.26-1.6.09-4.09l.12-.96c.01-1.07-.15-.76-.09-1.94.08.07.06-1.49.13-.8.12-2.67-.16-5.42.04-8.92-.14-.77-.06-2.54-.16-3.1.06-.09.01-3.55.14-1.56.01.16.01.47-.01.44l.08.25c.16-2-.08-3.64-.06-5.62-.04.59-.02,1.37-.08.84v-1.84s.08.37.08.37l.05-2.74-.09.37c.05-1.33.2-1.81.07-3.32-.07-.68-.12,1.28-.15-.14.07-1.8.16-4.48.19-6.78-.11.22-.09-.4-.12-1.03l.08-.08c-.12-2.42.2-.89.09-3.3l.07.21-.19-.63Z"/>
        <path class="cls-2" d="M66.62,4.9s.04-.15.04-.56l-.04.56Z"/>
        <path class="cls-2" d="M66.68,145.57s0,.09,0,.13c0-.09,0-.12,0-.13Z"/>
        <path class="cls-2" d="M67.03,73.53l-.12-.42c-.18-2.18.18-1.17-.06-3.59.01.96-.2.46-.15-.73l.08.3c-.02-.66-.06-.88-.04-1.31.05.4.12.21.11-.75l.11.64-.15-1.81c.08-1.39-.02-3.61.09-4.18,0,0,.06-3.01-.07-3.7.08.57.11-.85.19-.64-.07-.82-.15-3.04-.05-3.93v.18c.11-3.41-.13-5.83-.01-8.88-.09.14-.05-1.47-.18-1.08-.13-3.16.27-5.76-.14-6.91-.01-1.44.09-1.71.12-2.45l.02.34c-.04-2.69-.04-3.48-.02-5.48-.05-.99-.23-1.16-.19-2.95.08.59.06-.15.06-.82.01.43.05.56.09-.32-.02-.13-.04-.32-.05-.49,0-.01.01-.04.01-.04-.02-1.11-.05-.91-.06-.4-.01-.02-.02,0-.04.09.09-1.17-.01-3.15.12-3.29-.04-3.36-.16-5.77-.21-8.56.06-.32.12.34.14,1.15l-.02-1.99c.09.02.06,1.15.08,1.76.15-2.36-.15-4.87-.01-7.64l-.08-.57v-.16s-.08-.61-.09-1.03c.08-.39.19.04.19-1.33.08-1.09-.04-3.09-.08-4.51-.01.76-.06.52-.09.19,0-.68.08-1.08.05-1.6l.09-.06c-.08-.16-.09-1.83-.14-2.06.08-.39.07,1.07.13,1.24-.01-2.75,0-1.38-.01-4.13-.08-1.46-.11.27-.2-.43-.02-1.29-.11-2.55-.04-4.04l-.09.47c-.02-.57-.04-1.09-.05-1.57h-1.09c.06,3.3.18,6.61.22,11.53-.06,7.48-.25,9.46-.16,17.19-.02,3.69.02,7.62.05,11.21,0-.04,0-.08,0-.12v.17s.01,0,.01,0c.15,1.73,0,4.72.13,6.75l-.08.78c.04.69.07,1.51.02,2.21l-.02-.04c.06,1.04.02,2.21.06,2.74l-.02-.05v1.26s-.02-.21-.02-.21c.06,1.81.07,3.69.04,5.34l.11-.13c-.12,3.53.09,4.82-.04,8.01l-.02-.04c.27,4.03-.19,6.37.07,10.52-.04-.52-.06.22-.08.18.04,1.92.05,3.96.25,3.99,0,1.39-.06,1.14-.14,1.32.09,0,.13,1.19.13,2.28l-.04-.49.04,3.11.16-.61c-.05,1.65-.2.42-.16,2l.14-.02c-.02,2.29-.23,3.63-.34,5.85-.06,9.2.29,19.09.05,27.66l-.09.37c-.15.16.22,2.36.08,2.69l.07.99c-.04.28-.06.87-.09.37-.01.92.02.95.06,1.6l-.09.99c-.07,3.63.12,6.72.08,10.55-.2,4.6-.02,13.25.08,18.22.22,7.01-.37,15.16-.12,22.32-.02.23.02.84.05.84l-.02,6.55s0,2.86.02,6.22h1.23c.05-2.72.05-4.65-.11-6.73.21-.4.02-2.96.09-3.79v.07c-.14-2.19.14-4.51,0-6.63.02.06.06.11.07.33-.01-1.5-.05-3.37.06-3.46-.04-3.68.02-8.81-.16-11.17l.04.16c-.13-1.35-.02-1.74-.09-3.24.02-.07.02-.16.04-.16-.13-1.46-.02-4.27-.07-5.45l.07-.07v-2.91s-.04,1.09-.04,1.09c-.21-.37.14-2.2,0-4.32.02-1.98-.44-4-.34-6.05-.02-.16-.02-.25-.02-.28.06.13.16.68.11-.33.12-.05.07.69.16.3-.06-1.43.12-2.35.04-4.12l.09-.07c-.16-2.32.12-4.37-.04-5.9-.08-2.39.26-1.6.08-4.09l.12-.96c.02-1.07-.14-.76-.08-1.94.07.07.06-1.49.13-.8.12-2.67-.16-5.42.02-8.92-.14-.77-.06-2.54-.16-3.1.07-.09.01-3.55.15-1.56.01.16.01.47-.02.44l.09.25c.16-2-.09-3.64-.07-5.62-.02.59-.02,1.37-.08.84v-1.84s.09.37.09.37l.04-2.74-.08.37c.05-1.33.2-1.81.07-3.32-.07-.68-.13,1.28-.15-.14.06-1.8.15-4.48.18-6.78-.09.22-.09-.4-.12-1.03l.09-.08c-.13-2.42.19-.89.09-3.3Z"/>
        <path class="cls-2" d="M71.21,25.68v-.03s0-.1-.01-.14v.17Z"/>
        <path class="cls-2" d="M72.83,72.77c-.18-2.18.18-1.18-.06-3.59.02.95-.19.44-.15-.73l.08.29c-.01-.66-.05-.87-.04-1.3.05.39.13.2.11-.75l.12.63-.16-1.8c.09-1.4-.02-3.62.09-4.19,0,0,.06-3.01-.07-3.7.08.61.12-1.05.21-.57-.09-.78-.16-3.08-.07-4v.18c.12-3.41-.13-5.83,0-8.88-.11.14-.05-1.47-.18-1.08-.13-3.16.26-5.76-.14-6.91-.02-1.43.09-1.7.12-2.45l.02.35c-.04-2.7-.05-3.48-.04-5.48-.04-1.01-.22-1.16-.18-2.95.07.57.06-.15.06-.82.01.42.04.55.08-.33-.01-.12-.04-.32-.05-.49.01-.01.01-.05.02-.02-.02-1.12-.05-.92-.06-.41-.01,0-.02.05-.05.19.09-1.16-.01-3.24.12-3.38-.02-3.36-.16-5.76-.21-8.56.07-.32.13.34.15,1.15l-.02-1.98c.09.01.06,1.14.07,1.74.15-2.35-.15-4.87-.01-7.63l-.07-.57v-.18s.01,0,.01,0c.02-.02.03-.16.04-.55l-.04.55s-.09-.61-.1-1.01c.08-.4.19.02.18-1.35.08-1.09-.04-3.08-.08-4.51-.01.77-.06.53-.08.2,0-.69.08-1.09.05-1.62l.08-.05c-.08,0-.09-1.83-.14-2.06.09-.4.08,1.07.14,1.23-.01-2.75-.01-1.37-.02-4.12-.08-1.46-.09.27-.2-.43-.02-1.3-.09-2.56-.02-4.05l-.11.47c-.01-.43-.02-.84-.04-1.22h-1.08c.05,3.18.16,6.44.2,11.19-.05,7.47-.23,9.45-.16,17.19-.01,3.69.04,7.63.06,11.24.14,1.71,0,4.74.12,6.77l-.08.78c.05.7.07,1.52.02,2.22l-.02-.05c.07,1.04.04,2.22.06,2.74l-.02-.05v1.28s-.02-.22-.02-.22c.07,1.81.07,3.7.05,5.35l.09-.14c-.11,3.53.11,4.82-.04,8.02l-.02-.05c.27,4.03-.19,6.37.07,10.52-.04-.52-.05.22-.07.19.02,1.91.04,3.96.23,3.98,0,1.4-.06,1.14-.13,1.32.08,0,.12,1.21.13,2.29l-.04-.5.02,3.13.16-.62c-.05,1.65-.2.42-.15,2h.13c-.02,2.27-.23,3.62-.33,5.83-.06,9.21.28,19.1.05,27.66l-.11.39c-.15.16.22,2.35.08,2.68l.07.99c-.02.28-.06.88-.09.37,0,.92.02.95.07,1.62l-.09.98c-.07,3.64.11,6.73.07,10.56-.19,4.59-.01,13.24.08,18.22.23,7-.37,15.15-.12,22.32-.01.23.04.83.05.83l-.02,6.57s0,3.06.02,6.55h1.23c.06-2.89.05-4.9-.09-7.08.2-.39.02-2.95.08-3.79l.02.08c-.16-2.19.13-4.52-.01-6.63.01.08.07.13.07.61-.02-1.53-.07-3.64.05-3.76-.02-3.68.02-8.8-.16-11.16l.04.15c-.13-1.33-.02-1.73-.08-3.23.01-.07.02-.14.03-.16,0,.04,0,.08,0,.12,0-.08,0-.11,0-.12,0,0,0-.01,0-.01-.13-1.46-.02-4.26-.08-5.44l.08-.08-.02-2.91v1.09c-.22-.37.12-2.2-.01-4.31.02-1.98-.46-4.01-.35-6.06-.09-.98.16.87.09-.6.11-.05.07.68.15.3-.05-1.44.12-2.35.05-4.13l.08-.07c-.15-2.31.12-4.37-.04-5.9-.07-2.39.26-1.6.09-4.09l.12-.96c.01-1.07-.15-.76-.09-1.94.08.07.06-1.49.13-.8.12-2.67-.16-5.41.04-8.92-.14-.76-.06-2.53-.16-3.1.06-.09.01-3.53.14-1.56.01.18.01.48-.01.46l.08.23c.16-2-.08-3.64-.06-5.62-.04.59-.02,1.37-.08.84v-1.84s.08.39.08.39l.05-2.74-.09.37c.05-1.35.2-1.81.07-3.32-.07-.69-.12,1.26-.15-.15.07-1.79.16-4.48.19-6.77-.11.21-.09-.41-.12-1.04l.08-.07c-.12-2.43.2-.89.09-3.3l.07.21-.19-.63Z"/>
        <path class="cls-2" d="M78.48,4.55s.03-.15.04-.56l-.04.56Z"/>
        <path class="cls-2" d="M78.54,145.36c0-.09,0-.12,0-.13,0,.04,0,.09,0,.13Z"/>
        <path class="cls-2" d="M78.88,73.2h0s-.13-.43-.13-.43c-.16-2.15.18-1.21-.05-3.52,0,.85-.2.34-.15-.8l.08.29c-.02-.66-.06-.87-.04-1.3.05.39.12.2.11-.75l.11.63-.15-1.8c.08-1.4-.02-3.62.09-4.19,0,0,.06-2.74-.06-3.58.07.2.11-1.12.19-.69-.08-.78-.16-3.08-.06-4,.09-3.31-.13-5.71-.01-8.71-.11.14-.05-1.47-.18-1.08-.13-3.16.27-5.76-.14-6.91-.01-1.43.09-1.7.12-2.45l.02.35c-.04-2.7-.04-3.48-.02-5.48-.05-1.01-.23-1.16-.19-2.95.08.57.06-.15.06-.82.01.42.05.55.09-.33-.02-.12-.04-.32-.05-.49,0-.01.01-.04.01-.04-.02-1.11-.05-.91-.06-.4-.01,0-.02.05-.05.19.11-1.16,0-3.24.13-3.38-.04-3.36-.16-5.76-.21-8.56.06-.32.12.34.14,1.15l-.02-1.98c.09.01.06,1.14.08,1.74.15-2.35-.15-4.87-.01-7.63l-.08-.57v-.18s-.08-.61-.09-1.02c.08-.4.19.02.19-1.35.08-1.09-.04-3.08-.08-4.51-.01.77-.06.53-.09.2,0-.69.08-1.09.05-1.62l.09-.06c-.08-.16-.09-1.83-.14-2.05.08-.4.07,1.07.13,1.23-.01-2.75,0-1.37-.01-4.12-.08-1.46-.11.27-.2-.43-.02-1.3-.11-2.56-.04-4.05l-.09.47c-.01-.43-.02-.84-.04-1.22h-1.09c.06,3.18.16,6.44.21,11.19-.06,7.47-.25,9.45-.16,17.19-.02,3.68.02,7.61.05,11.21,0-.04,0-.08,0-.12v.17s.01,0,.01,0c.15,1.71,0,4.72.13,6.74l-.08.78c.04.7.07,1.52.02,2.22l-.02-.05c.06,1.04.02,2.22.06,2.74l-.02-.05v1.28s-.02-.22-.02-.22c.06,1.81.07,3.7.04,5.35l.11-.14c-.12,3.53.09,4.82-.04,8.02l-.02-.05c.27,4.03-.19,6.37.07,10.52-.04-.52-.06.22-.08.19.04,1.91.05,3.96.25,3.98,0,1.4-.06,1.14-.14,1.32.09,0,.13,1.21.13,2.29l-.04-.5.04,3.13.16-.62c-.05,1.65-.2.42-.16,2h.14c-.04,2.27-.23,3.62-.34,5.83-.06,9.21.29,19.1.05,27.66l-.09.39c-.15.16.22,2.35.08,2.68l.07.99c-.04.28-.06.88-.09.37-.01.92.01.95.06,1.62l-.09.98c-.07,3.64.12,6.73.07,10.56-.19,4.59-.01,13.24.09,18.22.22,7-.37,15.15-.12,22.32-.02.23.02.83.05.83l-.02,6.57s0,3.06.02,6.55h1.22c.06-2.89.06-4.9-.09-7.08.21-.39.02-2.95.09-3.79v.08c-.14-2.19.14-4.52,0-6.63.02.08.08.13.08.61-.02-1.53-.07-3.64.05-3.76-.04-3.68.02-8.8-.16-11.16l.04.15c-.13-1.33-.02-1.73-.09-3.23.02-.08.02-.18.04-.18-.13-1.46-.02-4.26-.07-5.44l.07-.08v-2.91s-.04,1.09-.04,1.09c-.21-.37.14-2.2,0-4.31.02-1.98-.44-4.01-.34-6.06-.02-.16-.02-.25-.02-.28.06.13.16.69.11-.32.12-.05.07.68.16.3-.06-1.44.12-2.35.04-4.13l.09-.07c-.16-2.31.11-4.37-.05-5.9-.07-2.39.27-1.6.09-4.09l.12-.96c.02-1.07-.14-.76-.08-1.94.07.07.06-1.49.13-.8.12-2.67-.16-5.41.02-8.92-.14-.76-.06-2.53-.16-3.1.07-.09.01-3.53.15-1.56.01.18,0,.48-.02.46l.09.23c.16-2-.09-3.64-.07-5.62-.02.59-.02,1.37-.08.84v-1.84s.09.39.09.39l.04-2.74-.08.37c.04-1.35.19-1.81.07-3.32-.07-.69-.13,1.26-.15-.15.06-1.79.15-4.48.18-6.77-.09.21-.09-.41-.12-1.04l.09-.07c-.13-2.43.19-.89.09-3.29Z"/>
        <path class="cls-2" d="M84.47,146.05c0-.09,0-.12,0-.13,0,.04,0,.09,0,.13Z"/>
        <path class="cls-2" d="M83.07,26.38v-.03s0-.1-.01-.14v.17Z"/>
        <path class="cls-2" d="M84.69,73.46c-.18-2.18.18-1.18-.06-3.59.02.95-.19.44-.15-.73l.08.29c-.01-.64-.05-.87-.04-1.3.05.39.13.2.11-.75l.11.63-.15-1.8c.09-1.4-.02-3.62.09-4.19,0,0,.06-2.74-.06-3.58.07.23.11-.94.19-.75-.08-.83-.15-3.04-.06-3.94v.18c.11-3.41-.13-5.82,0-8.88-.11.14-.05-1.47-.18-1.07-.13-3.17.26-5.77-.14-6.91-.02-1.44.09-1.71.12-2.46v.35c-.01-2.7-.02-3.48-.01-5.48-.04-1.01-.22-1.16-.18-2.95.07.57.06-.15.06-.82.01.42.04.55.08-.33-.02-.12-.04-.32-.05-.49.01,0,.01-.02.02-.02-.02-1.11-.05-.92-.06-.4-.01-.04-.02.01-.05.18.09-1.16-.01-3.24.12-3.38-.02-3.36-.16-5.76-.21-8.56.07-.32.13.34.15,1.15l-.02-1.98c.09.01.05,1.14.07,1.76.15-2.36-.15-4.88-.01-7.64l-.07-.57v-.16s.01,0,0,0c.02-.01.03-.15.04-.56l-.04.55s-.09-.62-.1-1.02c.08-.39.19.02.18-1.35.08-1.08-.04-3.08-.08-4.49-.01.76-.06.52-.08.19,0-.69.07-1.09.04-1.62l.09-.05c-.08-.16-.09-1.84-.14-2.06.08-.4.07,1.07.14,1.23-.01-2.75-.01-1.37-.02-4.12-.08-1.46-.09.27-.2-.43-.02-1.3-.09-2.56-.04-4.05l-.09.47c-.02-.71-.04-1.33-.04-1.91h-1.09c.05,3.42.18,6.79.21,11.88-.05,7.47-.23,9.45-.16,17.19-.01,3.69.04,7.63.06,11.24.14,1.71,0,4.74.12,6.77l-.08.78c.05.7.07,1.52.02,2.22l-.02-.05c.07,1.04.04,2.22.06,2.74l-.02-.05v1.28s-.02-.22-.02-.22c.07,1.83.07,3.7.05,5.35l.09-.14c-.11,3.53.11,4.82-.04,8.02l-.02-.05c.27,4.04-.19,6.38.07,10.53-.04-.53-.05.22-.07.18.02,1.91.04,3.96.23,3.99,0,1.39-.06,1.14-.13,1.31.08,0,.12,1.21.13,2.29l-.04-.5.02,3.13.16-.62c-.05,1.66-.2.42-.15,2.01l.13-.02c-.02,2.28-.23,3.63-.33,5.84-.06,9.21.28,19.1.05,27.66l-.11.39c-.15.16.22,2.36.08,2.68l.07,1.01c-.02.28-.06.87-.09.37,0,.91.02.94.07,1.6l-.09.98c-.07,3.64.11,6.73.07,10.56-.19,4.59-.01,13.24.08,18.22.23,7-.37,15.15-.12,22.32-.01.23.04.83.05.83l-.02,6.57s0,2.67.01,5.86h1.25c.05-2.53.02-4.39-.11-6.39.2-.39.02-2.95.08-3.79l.02.08c-.16-2.19.13-4.52-.01-6.63.01.08.07.13.07.61-.02-1.53-.07-3.64.05-3.76-.02-3.68.02-8.8-.16-11.15l.04.15c-.13-1.33-.02-1.73-.08-3.23.01-.08.02-.18.02-.18-.12-1.46-.01-4.26-.07-5.44l.08-.08-.02-2.91v1.09c-.22-.37.12-2.2-.01-4.31.02-1.98-.46-4.01-.35-6.06-.09-.98.16.87.09-.6.11-.05.07.68.15.3-.05-1.44.12-2.35.05-4.13l.08-.07c-.15-2.31.12-4.35-.04-5.9-.07-2.39.26-1.59.09-4.09l.12-.96c.01-1.07-.15-.76-.09-1.94.07.08.06-1.49.13-.8.12-2.66-.16-5.41.04-8.92-.14-.76-.06-2.53-.16-3.1.06-.09,0-3.53.14-1.56.01.18.01.48-.01.46l.08.23c.16-2-.08-3.64-.06-5.62-.04.59-.02,1.37-.08.84v-1.84s.08.39.08.39l.05-2.74-.09.37c.05-1.35.2-1.81.07-3.32-.07-.69-.12,1.26-.15-.15.07-1.79.15-4.48.19-6.77-.11.21-.11-.41-.12-1.04l.08-.07c-.12-2.43.2-.89.09-3.3l.07.21-.19-.63Z"/>
        <path class="cls-2" d="M90.33,5.25s.03-.15.04-.56l-.04.56Z"/>
        <path class="cls-2" d="M90.4,146.05c0-.09,0-.12,0-.13,0,.04,0,.09,0,.13Z"/>
        <path class="cls-2" d="M90.74,73.89h0s-.13-.43-.13-.43c-.16-2.15.18-1.21-.05-3.52,0,.85-.2.34-.15-.8l.08.29c-.02-.64-.06-.87-.04-1.3.05.39.12.2.11-.75l.11.63-.15-1.8c.08-1.4-.02-3.62.09-4.19,0,0,.06-3.01-.07-3.69.08.56.11-.85.19-.64-.07-.82-.15-3.04-.05-3.94.09-3.31-.13-5.7-.01-8.71-.11.14-.05-1.47-.18-1.07-.13-3.17.27-5.77-.14-6.91-.01-1.44.09-1.71.12-2.46l.02.35c-.04-2.7-.04-3.48-.02-5.48-.05-1.01-.23-1.16-.19-2.95.08.57.06-.15.06-.82.01.42.05.55.09-.33-.02-.12-.04-.32-.05-.49v-.02c-.01-1.11-.04-.92-.05-.4-.01-.04-.02.01-.05.18.09-1.16,0-3.24.13-3.38-.04-3.36-.16-5.76-.21-8.56.06-.32.12.34.14,1.15l-.02-1.98c.09.01.06,1.14.08,1.76.15-2.36-.15-4.88-.01-7.64l-.08-.57v-.16s-.08-.62-.09-1.03c.08-.39.19.02.19-1.35.08-1.08-.04-3.08-.08-4.49-.01.76-.06.52-.09.19,0-.69.08-1.09.05-1.62l.08-.05c-.07-.16-.08-1.84-.13-2.06.08-.4.07,1.07.13,1.23-.01-2.75,0-1.37-.01-4.12-.08-1.46-.11.27-.2-.43-.02-1.3-.11-2.56-.04-4.05l-.09.47c-.02-.71-.05-1.33-.05-1.91h-1.09c.05,3.42.18,6.79.22,11.88-.06,7.47-.25,9.45-.16,17.19-.02,3.68.02,7.62.05,11.22,0-.04,0-.09,0-.13v.17s.01,0,.01-.01c.15,1.71,0,4.73.13,6.75l-.08.78c.04.7.07,1.52.02,2.22l-.02-.05c.06,1.04.02,2.22.06,2.74l-.02-.05v1.28s-.02-.22-.02-.22c.06,1.83.07,3.7.04,5.35l.11-.14c-.12,3.53.09,4.82-.04,8.02l-.04-.05c.27,4.04-.18,6.38.08,10.53-.04-.53-.06.22-.08.18.04,1.91.05,3.96.25,3.99,0,1.39-.06,1.14-.14,1.31.08,0,.13,1.21.13,2.29l-.04-.5.04,3.13.16-.62c-.05,1.66-.2.42-.16,2.01l.14-.02c-.04,2.28-.23,3.63-.34,5.84-.06,9.21.29,19.1.05,27.66l-.11.39c-.14.16.23,2.36.09,2.68l.06,1.01c-.02.28-.05.87-.08.37-.01.91.01.94.06,1.6l-.09.98c-.07,3.64.12,6.73.07,10.56-.19,4.59-.01,13.24.09,18.22.22,7-.37,15.15-.12,22.32-.02.23.02.83.05.83l-.02,6.57s0,2.66.01,5.86h1.24c.05-2.53.04-4.39-.11-6.39.21-.39.02-2.95.09-3.79v.08c-.14-2.19.14-4.52,0-6.63.02.08.07.13.08.61-.02-1.53-.07-3.64.05-3.76-.04-3.68.02-8.8-.16-11.15l.04.15c-.13-1.33-.02-1.73-.09-3.23.02-.08.02-.18.04-.18-.13-1.46-.02-4.26-.07-5.44l.07-.08v-2.91s-.04,1.09-.04,1.09c-.21-.37.14-2.2,0-4.31.02-1.98-.44-4.01-.34-6.06-.02-.16-.02-.25-.02-.28.06.13.16.69.11-.32.12-.05.07.68.16.3-.06-1.44.12-2.35.04-4.13l.09-.07c-.16-2.31.11-4.35-.05-5.9-.07-2.39.27-1.59.09-4.09l.12-.96c.02-1.07-.14-.76-.08-1.94.07.08.06-1.49.13-.8.12-2.66-.16-5.41.02-8.92-.14-.76-.06-2.53-.16-3.1.06-.09.01-3.53.15-1.56.01.18,0,.48-.02.46l.09.23c.16-2-.09-3.64-.07-5.62-.02.59-.02,1.37-.08.84v-1.84s.09.39.09.39l.04-2.74-.08.37c.04-1.35.19-1.81.07-3.32-.07-.69-.13,1.26-.15-.15.06-1.79.15-4.48.18-6.77-.09.21-.09-.41-.12-1.04l.09-.07c-.13-2.43.19-.89.09-3.29Z"/>
        <path class="cls-2" d="M96.33,146.86c0-.09,0-.12,0-.13,0,.04,0,.09,0,.13Z"/>
        <path class="cls-2" d="M94.93,27.18v-.03s0-.1-.01-.14v.17Z"/>
        <path class="cls-2" d="M96.55,74.27c-.18-2.18.18-1.18-.06-3.59.01.95-.19.44-.15-.73l.08.29c-.01-.64-.05-.87-.04-1.3.05.39.13.2.11-.75l.11.64-.15-1.81c.09-1.4-.02-3.62.09-4.19,0,0,.06-3.01-.07-3.69.08.6.12-1.05.21-.59-.09-.78-.16-3.08-.07-4v.18c.11-3.41-.13-5.82,0-8.87-.11.13-.05-1.47-.18-1.08-.13-3.17.26-5.77-.14-6.91-.02-1.44.09-1.71.12-2.46v.35c-.01-2.69-.02-3.48-.01-5.48-.04-1.01-.22-1.16-.18-2.95.07.57.06-.15.06-.82.01.42.04.56.08-.33-.02-.12-.04-.32-.05-.49.01,0,.01-.02.02-.02-.02-1.11-.05-.92-.06-.4-.01-.04-.02.01-.05.18.09-1.16-.01-3.24.12-3.38-.02-3.36-.16-5.76-.21-8.56.07-.32.13.34.15,1.15l-.02-1.98c.09.01.05,1.14.07,1.76.15-2.36-.15-4.88-.01-7.64l-.07-.57v-.16s.01,0,0,0c.02-.01.03-.15.04-.55l-.04.55s-.09-.62-.1-1.02c.08-.39.19.02.18-1.35.08-1.08-.04-3.08-.08-4.49-.01.76-.06.52-.08.19-.01-.69.07-1.09.04-1.62l.09-.05c-.08-.16-.09-1.83-.14-2.06.08-.39.07,1.07.14,1.23-.01-2.75-.01-1.37-.02-4.12-.08-1.46-.11.27-.2-.43-.02-1.3-.09-2.56-.04-4.05l-.09.47c-.04-1.07-.05-1.93-.05-2.72h-1.08c.02,3.7.16,7.2.21,12.69-.05,7.47-.23,9.45-.16,17.19-.01,3.69.04,7.63.06,11.24.14,1.71,0,4.74.12,6.77l-.08.78c.05.7.07,1.52.02,2.22l-.02-.05c.07,1.04.04,2.22.06,2.74l-.02-.05v1.28s-.02-.22-.02-.22c.07,1.83.07,3.7.05,5.35l.09-.14c-.11,3.53.11,4.83-.04,8.02l-.02-.05c.27,4.04-.19,6.38.07,10.53-.04-.53-.05.22-.07.18.02,1.91.04,3.96.23,3.99,0,1.39-.06,1.14-.14,1.31.09,0,.13,1.21.14,2.29l-.04-.5.02,3.13.16-.62c-.05,1.66-.2.42-.15,2.01l.13-.02c-.02,2.28-.23,3.63-.33,5.84-.06,9.21.28,19.1.05,27.66l-.11.39c-.15.16.22,2.36.08,2.69l.07.99c-.02.28-.06.87-.09.37,0,.91.02.94.07,1.6l-.09.98c-.07,3.64.11,6.73.07,10.56-.19,4.59-.01,13.24.08,18.22.23,7-.37,15.15-.12,22.32-.02.23.04.84.05.83l-.02,6.57s0,2.22.01,5.06h1.26c.02-2.13,0-3.8-.12-5.58.2-.39.02-2.95.08-3.79l.02.08c-.16-2.19.13-4.52-.01-6.63.01.08.07.13.07.61-.02-1.53-.07-3.64.05-3.76-.02-3.68.02-8.8-.16-11.15l.04.15c-.13-1.33-.02-1.73-.08-3.23.01-.08.02-.18.02-.18-.12-1.46-.01-4.26-.07-5.44l.08-.08-.02-2.91v1.09c-.22-.37.12-2.2-.01-4.31.02-1.98-.46-4.01-.35-6.06-.09-.97.16.87.09-.6.11-.05.07.68.15.3-.05-1.44.12-2.35.05-4.13l.08-.07c-.16-2.31.12-4.35-.04-5.9-.07-2.38.26-1.59.08-4.07l.13-.97c.01-1.07-.15-.76-.09-1.93.07.07.06-1.5.13-.81.12-2.66-.16-5.41.04-8.92-.14-.76-.06-2.53-.16-3.1.06-.09,0-3.53.14-1.56.01.18.01.48-.01.46l.08.23c.16-2-.08-3.64-.06-5.62-.04.59-.02,1.37-.08.84v-1.84s.08.39.08.39l.05-2.74-.09.37c.05-1.35.2-1.81.07-3.32-.07-.69-.12,1.26-.15-.15.07-1.79.15-4.48.19-6.77-.11.21-.11-.41-.12-1.04l.08-.07c-.12-2.43.2-.89.09-3.3l.07.21-.19-.63Z"/>
        <path class="cls-2" d="M102.19,6.05s.03-.15.04-.56l-.04.56Z"/>
        <path class="cls-2" d="M102.6,74.7h0s-.13-.43-.13-.43c-.16-2.15.18-1.21-.05-3.52,0,.85-.2.34-.16-.8l.09.29c-.02-.64-.06-.87-.04-1.3.05.39.12.2.11-.75l.11.64-.15-1.81c.08-1.4-.02-3.62.09-4.19,0,0,.06-2.76-.06-3.59.07.26.11-1.11.19-.68-.08-.78-.16-3.08-.07-4v.18c.12-3.41-.12-5.82,0-8.87-.11.13-.05-1.47-.18-1.08-.13-3.17.27-5.77-.14-6.91-.01-1.44.09-1.71.12-2.46l.02.35c-.04-2.69-.04-3.48-.02-5.48-.05-1.01-.23-1.16-.19-2.95.08.57.06-.15.06-.82.01.42.05.56.09-.33-.02-.12-.04-.32-.05-.49v-.02c-.01-1.11-.04-.92-.05-.4-.01-.04-.02.01-.05.18.09-1.16,0-3.24.13-3.38-.04-3.36-.16-5.76-.21-8.56.06-.32.12.34.14,1.15l-.02-1.98c.09.01.06,1.14.08,1.76.15-2.36-.15-4.88-.02-7.64l-.07-.57v-.16s-.08-.62-.09-1.03c.08-.39.19.02.19-1.35.08-1.08-.05-3.08-.08-4.49-.01.76-.06.52-.09.19,0-.69.08-1.09.05-1.62l.08-.05c-.08-.16-.08-1.83-.13-2.06.08-.39.07,1.07.13,1.23-.01-2.75,0-1.37-.01-4.12-.08-1.46-.11.27-.2-.43-.02-1.3-.11-2.56-.04-4.05l-.09.47c-.04-1.07-.06-1.93-.06-2.72h-1.08c.04,3.71.18,7.19.22,12.69-.06,7.47-.25,9.45-.16,17.19-.02,3.68.02,7.62.05,11.23,0-.04,0-.09,0-.13v.17s.01-.01.01-.02c.15,1.71,0,4.73.13,6.75l-.08.78c.04.7.07,1.52.02,2.22l-.02-.05c.06,1.04.02,2.22.06,2.74l-.02-.05v1.28s-.02-.22-.02-.22c.06,1.83.07,3.7.04,5.35l.11-.14c-.12,3.53.09,4.83-.04,8.02l-.04-.05c.27,4.04-.18,6.38.08,10.53-.04-.53-.06.22-.08.18.04,1.91.05,3.96.25,3.99,0,1.39-.06,1.14-.14,1.31.08,0,.13,1.21.13,2.29l-.04-.5.04,3.13.16-.62c-.05,1.66-.2.42-.16,2.01l.14-.02c-.04,2.28-.23,3.63-.34,5.84-.06,9.21.29,19.1.05,27.66l-.11.39c-.14.16.22,2.36.09,2.69l.06.99c-.02.28-.05.87-.08.37-.01.91.01.94.06,1.6l-.09.98c-.07,3.64.12,6.73.07,10.56-.19,4.59-.01,13.24.09,18.22.22,7-.37,15.15-.12,22.32-.02.23.02.84.05.83l-.02,6.57s0,2.22.01,5.06h1.25c.02-2.13,0-3.8-.12-5.58.21-.39.02-2.95.09-3.79v.08c-.14-2.19.14-4.52,0-6.63.02.08.07.13.08.61-.02-1.53-.07-3.64.05-3.76-.04-3.68.02-8.8-.16-11.15l.02.15c-.12-1.33-.01-1.73-.08-3.23.02-.08.02-.17.03-.17,0,.04,0,.09,0,.13,0-.09,0-.12,0-.13,0,0,0,0,0,0-.13-1.46-.02-4.26-.07-5.44l.07-.08v-2.91s-.04,1.09-.04,1.09c-.21-.37.14-2.2,0-4.31.02-1.98-.44-4.01-.34-6.06-.02-.16-.02-.25-.02-.28.05.13.16.69.11-.32.12-.05.07.68.16.3-.06-1.44.12-2.35.04-4.13l.09-.07c-.16-2.31.11-4.35-.05-5.9-.07-2.38.27-1.59.09-4.07l.12-.97c.02-1.07-.14-.76-.08-1.93.07.07.06-1.5.13-.81.12-2.66-.16-5.41.02-8.92-.14-.76-.06-2.53-.16-3.1.06-.09.01-3.53.15-1.56.01.18,0,.48-.02.46l.09.23c.15-2-.09-3.64-.07-5.62-.02.59-.02,1.37-.08.84v-1.84s.09.39.09.39l.04-2.74-.09.37c.05-1.35.2-1.81.08-3.32-.07-.69-.13,1.26-.15-.15.06-1.79.15-4.48.18-6.77-.09.21-.09-.41-.12-1.04l.09-.07c-.13-2.43.19-.89.09-3.29Z"/>
        <path class="cls-2" d="M108.18,147.55c0-.09,0-.12,0-.13,0,.04,0,.09,0,.13Z"/>
        <path class="cls-2" d="M106.78,27.88v-.03s0-.1-.01-.14v.17Z"/>
        <path class="cls-2" d="M108.4,74.96c-.18-2.18.18-1.18-.06-3.59.01.96-.19.44-.15-.73l.08.29c-.01-.64-.05-.87-.04-1.3.05.39.13.21.11-.75l.11.64-.15-1.81c.09-1.39-.02-3.62.09-4.19,0,0,.06-2.74-.06-3.58.07.23.11-.94.19-.75-.08-.83-.15-3.04-.06-3.94v.18c.11-3.41-.13-5.82,0-8.87-.11.14-.05-1.47-.18-1.08-.13-3.16.26-5.77-.14-6.91-.02-1.44.09-1.71.12-2.45v.34c-.01-2.69-.02-3.48-.01-5.48-.04-1.01-.22-1.16-.18-2.95.07.57.06-.15.06-.82.01.42.04.56.08-.32-.02-.13-.04-.32-.05-.5.01,0,.01-.02.02-.02-.02-1.11-.05-.92-.06-.4-.01-.04-.02.01-.05.18.09-1.16-.01-3.23.12-3.37-.02-3.37-.16-5.77-.21-8.57.07-.32.13.34.15,1.16l-.02-1.99c.09.01.05,1.14.07,1.76.15-2.36-.15-4.87-.01-7.64l-.07-.57v-.16s.01,0,0,0c.02-.02.03-.16.04-.55l-.04.55s-.09-.62-.1-1.02c.08-.39.19.04.18-1.35.08-1.08-.04-3.08-.08-4.49-.01.76-.06.52-.08.19-.01-.69.07-1.08.04-1.62l.09-.05c-.08-.16-.09-1.83-.14-2.06.08-.39.07,1.07.14,1.24-.01-2.75-.01-1.38-.02-4.13-.08-1.46-.11.27-.2-.43-.02-1.3-.09-2.56-.04-4.05l-.09.47c-.04-1.38-.06-2.45-.04-3.41h-1.1c.01,3.97.16,7.54.22,13.38-.05,7.47-.23,9.45-.16,17.19-.01,3.69.04,7.63.06,11.24.14,1.72,0,4.74.12,6.77l-.08.78c.05.7.07,1.52.02,2.22l-.02-.05c.07,1.04.02,2.22.06,2.74l-.02-.04v1.26s-.02-.22-.02-.22c.07,1.83.07,3.7.05,5.35l.09-.14c-.11,3.53.11,4.83-.04,8.02l-.02-.05c.27,4.04-.19,6.38.07,10.53-.04-.53-.05.22-.08.18.04,1.92.05,3.96.25,3.99,0,1.39-.06,1.14-.14,1.31.09,0,.13,1.21.14,2.29l-.04-.5.02,3.13.16-.62c-.05,1.66-.2.42-.16,2.01l.14-.02c-.02,2.28-.23,3.63-.34,5.84-.06,9.21.29,19.1.06,27.67l-.11.37c-.15.16.22,2.36.08,2.69l.07.99c-.02.28-.06.87-.09.37,0,.91.02.94.07,1.6l-.09.98c-.07,3.64.11,6.73.07,10.56-.19,4.59-.01,13.24.08,18.22.23,7-.37,15.15-.12,22.32-.02.23.04.84.05.83l-.02,6.57s0,1.87.01,4.37h1.26c.01-1.81-.01-3.31-.12-4.89.2-.39.02-2.95.08-3.79l.02.08c-.16-2.19.13-4.51-.01-6.63.01.08.07.13.07.61-.02-1.53-.07-3.64.05-3.76-.02-3.68.02-8.8-.16-11.16l.04.16c-.13-1.35-.02-1.74-.08-3.24.01-.08.02-.18.02-.18-.12-1.46-.01-4.26-.07-5.44l.08-.08-.02-2.9v1.08c-.23-.37.12-2.2-.02-4.31.04-1.98-.44-4-.34-6.06-.09-.97.16.87.09-.6.11-.05.07.68.15.3-.05-1.44.12-2.35.05-4.13l.08-.07c-.16-2.31.12-4.35-.04-5.9-.07-2.38.26-1.59.08-4.07l.13-.97c.01-1.07-.15-.76-.09-1.93.07.07.06-1.5.13-.81.12-2.66-.16-5.41.04-8.92-.15-.76-.06-2.53-.16-3.09.06-.11,0-3.55.14-1.56.01.16.01.47-.01.44l.08.23c.16-2-.08-3.63-.06-5.62-.04.59-.02,1.37-.08.85v-1.85s.08.39.08.39l.05-2.74-.09.37c.05-1.35.2-1.81.07-3.32-.07-.69-.12,1.26-.15-.15.07-1.79.15-4.47.19-6.77-.11.21-.11-.4-.12-1.04l.08-.07c-.12-2.42.2-.89.09-3.3l.07.21-.19-.63Z"/>
        <path class="cls-2" d="M114.05,6.75s.04-.15.04-.56l-.04.56Z"/>
        <path class="cls-2" d="M114.46,75.39h0s-.13-.43-.13-.43c-.16-2.15.18-1.21-.05-3.52,0,.87-.2.34-.16-.8l.09.29c-.02-.64-.06-.87-.04-1.3.04.39.12.21.11-.75l.11.64-.15-1.81c.08-1.39-.02-3.62.09-4.19,0,0,.06-3-.07-3.69.08.56.11-.85.19-.64-.07-.83-.15-3.04-.06-3.94v.18c.12-3.41-.12-5.82,0-8.87-.11.14-.05-1.47-.18-1.08-.13-3.16.27-5.77-.14-6.91-.02-1.44.09-1.71.12-2.45l.02.34c-.04-2.69-.04-3.48-.02-5.48-.05-1.01-.23-1.16-.19-2.95.07.57.06-.15.06-.82.01.42.05.56.09-.32-.02-.13-.04-.32-.05-.5v-.02c-.01-1.11-.04-.92-.05-.4-.01-.04-.02.01-.05.18.09-1.16,0-3.23.13-3.37-.04-3.37-.16-5.77-.21-8.57.06-.32.12.34.14,1.16l-.02-1.99c.09.01.06,1.14.07,1.76.16-2.36-.14-4.87-.01-7.64l-.07-.57v-.16s-.08-.62-.09-1.03c.08-.39.19.04.19-1.35.08-1.08-.05-3.08-.08-4.49-.02.76-.06.52-.09.19,0-.69.08-1.08.05-1.62l.08-.05c-.08-.16-.08-1.83-.13-2.06.08-.39.07,1.07.13,1.24-.01-2.75,0-1.38-.01-4.13-.08-1.46-.11.27-.2-.43-.02-1.3-.11-2.56-.04-4.05l-.09.47c-.05-1.37-.06-2.43-.05-3.41h-1.1c.02,3.97.18,7.54.23,13.38-.06,7.47-.25,9.45-.16,17.19-.02,3.69.02,7.63.05,11.23,0-.05,0-.1,0-.14v.17s.01-.02.01-.03c.15,1.72,0,4.74.13,6.76l-.08.78c.04.7.07,1.52.02,2.22l-.02-.05c.06,1.04.02,2.22.06,2.74l-.02-.04v1.26s-.02-.22-.02-.22c.06,1.83.07,3.7.04,5.35l.11-.14c-.12,3.53.09,4.83-.04,8.02l-.04-.05c.27,4.04-.18,6.38.08,10.53-.04-.53-.06.22-.08.18.02,1.92.05,3.96.25,3.99,0,1.39-.06,1.14-.14,1.31.08,0,.13,1.21.13,2.29l-.04-.5.04,3.13.16-.62c-.05,1.66-.2.42-.16,2.01l.14-.02c-.04,2.28-.23,3.63-.34,5.84-.06,9.21.29,19.1.05,27.67l-.11.37c-.14.16.22,2.36.09,2.69l.06.99c-.02.28-.05.87-.08.37-.01.91.01.94.06,1.6l-.09.98c-.07,3.64.12,6.73.07,10.56-.19,4.59-.01,13.24.09,18.22.22,7-.37,15.15-.12,22.32-.02.23.02.84.05.83l-.02,6.57s0,1.87.01,4.37h1.26c.01-1.8-.02-3.3-.13-4.89.21-.39.02-2.95.09-3.79v.08c-.14-2.19.14-4.51,0-6.63.02.08.07.13.08.61-.04-1.53-.07-3.64.05-3.76-.04-3.68.02-8.8-.16-11.16l.02.16c-.12-1.35-.01-1.74-.08-3.24.02-.08.02-.16.03-.17,0,.04,0,.09,0,.13,0-.09,0-.12,0-.13,0,0,0,0,0,0-.13-1.46-.02-4.26-.07-5.44l.07-.08v-2.9s-.04,1.08-.04,1.08c-.21-.37.14-2.2,0-4.31.02-1.98-.44-4-.34-6.06-.02-.16-.02-.25-.02-.28.05.13.16.69.11-.32.12-.05.07.68.16.3-.06-1.44.12-2.35.04-4.13l.09-.07c-.16-2.31.11-4.35-.05-5.9-.07-2.38.27-1.59.09-4.07l.12-.97c.02-1.07-.14-.76-.08-1.93.07.07.06-1.5.13-.81.12-2.66-.16-5.41.02-8.92-.14-.76-.06-2.53-.16-3.09.06-.11.01-3.55.15-1.56.01.16,0,.47-.02.44l.09.23c.15-2-.09-3.63-.07-5.62-.02.59-.02,1.37-.08.85v-1.85s.08.39.08.39l.05-2.74-.09.37c.05-1.35.2-1.81.08-3.32-.08-.69-.13,1.26-.15-.15.06-1.79.15-4.47.18-6.77-.09.21-.09-.4-.12-1.04l.09-.07c-.13-2.42.19-.89.09-3.29Z"/>
        <path class="cls-2" d="M120.04,147.2c0-.09,0-.12,0-.13,0,.04,0,.09,0,.13Z"/>
        <path class="cls-2" d="M118.64,27.53v-.03s0-.1-.01-.14v.17Z"/>
        <path class="cls-2" d="M120.38,75.04h0s-.12-.43-.12-.43c-.18-2.18.18-1.17-.06-3.59.01.96-.19.46-.15-.73l.08.3c-.01-.66-.05-.87-.04-1.3.05.39.13.2.11-.76l.11.64-.15-1.81c.09-1.39-.02-3.61.09-4.18,0,0,.06-3.01-.07-3.7.08.61.12-1.05.21-.59-.09-.77-.16-3.08-.07-3.99v.18c.11-3.41-.13-5.83,0-8.88-.11.14-.05-1.47-.18-1.08-.13-3.16.26-5.76-.14-6.91-.02-1.44.09-1.71.12-2.45v.34c-.01-2.69-.02-3.48-.01-5.48-.04-.99-.22-1.16-.18-2.95.07.59.06-.15.06-.82.01.43.04.56.08-.32-.02-.13-.04-.32-.05-.49.01-.01.01-.05.02-.02-.02-1.12-.05-.92-.06-.41-.01-.02-.04.02-.05.18.09-1.16-.01-3.23.12-3.37-.02-3.36-.16-5.76-.21-8.56.07-.32.13.34.15,1.15l-.02-1.99c.09.02.05,1.15.07,1.76.15-2.36-.15-4.87-.01-7.64l-.07-.57v-.16s.01,0,0,0c.02-.02.03-.16.04-.55l-.04.55s-.09-.61-.1-1.01c.08-.4.19.02.18-1.35.08-1.09-.04-3.08-.08-4.51-.01.77-.06.52-.08.19-.01-.68.07-1.08.04-1.6l.09-.05s.01-.01.02-.02h-.02c-.08-.15-.09-1.81-.14-2.05.08-.39.07,1.07.14,1.24-.01-2.75-.01-1.38-.02-4.12-.08-1.47-.11.26-.2-.44-.02-1.29-.09-2.55-.04-4.04l-.09.47c-.05-1.22-.06-2.19-.06-3.07h-1.08c.02,3.84.16,7.36.22,13.04-.05,7.47-.23,9.45-.16,17.18-.01,3.7.04,7.63.06,11.25.14,1.71,0,4.74.12,6.77l-.08.78c.05.7.07,1.52.02,2.22l-.02-.05c.07,1.04.02,2.21.06,2.74l-.02-.05v1.26s-.02-.21-.02-.21c.07,1.81.07,3.69.05,5.35l.09-.14c-.11,3.53.11,4.82-.04,8.02l-.02-.05c.27,4.03-.19,6.37.07,10.52-.04-.52-.05.22-.08.19.04,1.91.05,3.96.25,3.98,0,1.39-.06,1.14-.14,1.32.09,0,.13,1.19.13,2.28l-.02-.49.02,3.11.16-.61c-.05,1.65-.2.42-.16,2l.14-.02c-.02,2.29-.23,3.63-.34,5.85-.06,9.2.29,19.09.06,27.66l-.11.37c-.15.16.22,2.36.08,2.69l.07.99c-.02.28-.06.88-.09.37,0,.92.02.95.07,1.6l-.09.99c-.07,3.63.11,6.72.07,10.55-.19,4.6-.01,13.25.08,18.22.22,7.01-.37,15.16-.12,22.33-.02.22.04.83.05.83l-.02,6.55s0,2.05.01,4.72h1.26c.02-1.97,0-3.56-.12-5.23.2-.4.02-2.95.08-3.79l.02.08c-.16-2.2.13-4.52-.01-6.63.01.06.05.09.06.32-.01-1.5-.05-3.36.06-3.46-.02-3.68.02-8.81-.16-11.17l.04.16c-.13-1.35-.02-1.73-.08-3.24.01-.07.02-.16.02-.16-.12-1.46-.01-4.27-.07-5.45l.08-.07-.02-2.91v1.09c-.23-.37.12-2.2-.02-4.32.04-1.97-.44-4-.34-6.05-.09-.98.16.85.09-.61.11-.05.07.69.15.32-.05-1.44.12-2.36.05-4.13l.08-.07c-.16-2.32.12-4.37-.04-5.9-.07-2.39.26-1.6.08-4.09l.13-.96c.01-1.07-.15-.76-.09-1.94.07.07.06-1.49.13-.8.12-2.67-.16-5.41.04-8.92-.15-.76-.06-2.53-.16-3.1.06-.09,0-3.55.14-1.56.01.18.01.47-.01.46l.08.23c.16-2-.09-3.64-.06-5.62-.04.59-.02,1.37-.08.84v-1.84s.08.39.08.39l.05-2.75-.09.39c.05-1.35.2-1.81.07-3.34-.07-.68-.12,1.28-.15-.14.07-1.79.15-4.48.19-6.78-.11.22-.11-.4-.12-1.03l.08-.07c-.12-2.43.2-.89.09-3.3Z"/>
        <path class="cls-2" d="M125.9,6.4s.04-.15.04-.56l-.04.56Z"/>
        <path class="cls-2" d="M124.57,27.53v-.03s0-.1-.01-.14v.17Z"/>
        <path class="cls-2" d="M126.31,75.05v-.02l-.13-.42c-.16-2.15.18-1.19-.05-3.52,0,.87-.2.35-.16-.8l.09.3c-.02-.66-.06-.87-.04-1.3.04.39.12.2.11-.76l.11.64-.15-1.81c.08-1.39-.02-3.61.09-4.18,0,0,.06-2.74-.06-3.58.07.2.11-1.12.19-.7-.09-.77-.16-3.08-.07-3.99v.18c.12-3.41-.12-5.83,0-8.88-.11.14-.05-1.47-.18-1.08-.13-3.16.27-5.76-.14-6.91-.02-1.44.09-1.71.12-2.45l.02.34c-.04-2.69-.04-3.48-.02-5.48-.05-.99-.23-1.16-.19-2.95.07.59.06-.15.06-.82.01.43.05.56.09-.32-.02-.13-.04-.32-.05-.49,0-.01.01-.04.01-.04-.02-1.11-.05-.91-.06-.4-.01,0-.02.05-.05.18.09-1.16,0-3.23.13-3.37-.04-3.36-.16-5.76-.21-8.56.06-.32.12.34.14,1.15l-.02-1.99c.09.02.06,1.15.07,1.76.15-2.36-.15-4.87-.01-7.64l-.07-.57v-.16s-.08-.61-.09-1.02c.08-.4.19.02.19-1.35.08-1.09-.05-3.08-.08-4.51-.02.77-.06.52-.09.19,0-.68.08-1.08.05-1.6l.08-.05c-.08,0-.08-1.83-.13-2.07.08-.39.07,1.07.13,1.24-.01-2.75,0-1.38-.01-4.12-.08-1.47-.11.26-.2-.44-.02-1.29-.11-2.55-.04-4.04l-.11.47c-.04-1.22-.05-2.2-.04-3.07h-1.09c.02,3.84.16,7.37.21,13.04-.05,7.47-.23,9.45-.15,17.18-.02,3.7.02,7.63.05,11.25.15,1.71,0,4.74.13,6.77l-.08.78c.04.7.07,1.52.02,2.22l-.02-.05c.06,1.04.02,2.21.06,2.74l-.02-.05v1.26l-.02-.21c.06,1.81.07,3.69.04,5.35l.11-.14c-.12,3.53.09,4.82-.05,8.02l-.02-.05c.27,4.03-.18,6.37.08,10.52-.04-.52-.06.22-.08.19.02,1.91.05,3.96.25,3.98,0,1.39-.07,1.14-.14,1.32.08,0,.12,1.19.13,2.28l-.04-.49.04,3.11.16-.61c-.05,1.65-.21.42-.16,2l.14-.02c-.04,2.29-.23,3.63-.34,5.85-.06,9.2.29,19.09.05,27.66l-.11.37c-.14.16.22,2.36.09,2.69l.06.99c-.02.28-.05.88-.08.37-.01.92.01.95.06,1.6l-.09.99c-.07,3.63.11,6.72.07,10.55-.19,4.6-.01,13.25.09,18.22.22,7.01-.37,15.16-.12,22.33-.02.22.02.83.04.83v6.55s-.01,2.05,0,4.72h1.25c.02-1.97,0-3.56-.12-5.23.21-.4.02-2.95.09-3.79v.08c-.14-2.2.14-4.52,0-6.63.02.08.07.12.08.61-.04-1.55-.07-3.64.05-3.76-.04-3.68.02-8.81-.16-11.17l.02.16c-.12-1.35-.01-1.73-.08-3.24.02-.07.02-.15.03-.16,0,.04,0,.09,0,.13,0-.09,0-.11,0-.13,0,0,0,0,0,0-.13-1.46-.02-4.27-.07-5.45l.07-.07v-2.91s-.04,1.09-.04,1.09c-.21-.37.14-2.2,0-4.32.02-1.97-.44-4-.34-6.05-.02-.16-.02-.25-.02-.28.06.13.16.68.11-.33.12-.05.07.69.16.32-.06-1.44.12-2.36.04-4.13l.09-.07c-.16-2.32.11-4.37-.05-5.9-.07-2.39.26-1.6.09-4.09l.12-.96c.02-1.07-.14-.76-.09-1.94.08.07.07-1.49.14-.8.12-2.67-.18-5.41.02-8.92-.14-.76-.06-2.53-.16-3.1.06-.09.01-3.55.15-1.56.01.18,0,.47-.02.46l.09.23c.15-2-.09-3.64-.07-5.62-.02.59-.02,1.37-.08.84v-1.84s.08.39.08.39l.05-2.75-.09.39c.05-1.35.2-1.81.07-3.34-.07-.68-.12,1.28-.14-.14.06-1.79.15-4.48.18-6.78-.09.22-.09-.4-.12-1.03l.09-.07c-.13-2.42.19-.9.09-3.29Z"/>
        <path class="cls-2" d="M131.9,147.89c0-.09,0-.12,0-.13,0,.04,0,.09,0,.13Z"/>
        <path class="cls-2" d="M132.24,75.73l-.12-.43c-.18-2.18.18-1.17-.06-3.59.01.96-.19.46-.15-.73l.08.3c-.01-.66-.05-.87-.04-1.3.05.39.13.2.11-.76l.11.64-.15-1.8c.09-1.4-.02-3.62.09-4.19,0,0,.06-2.74-.06-3.58.07.19.11-.95.19-.76-.08-.83-.15-3.03-.06-3.93v.18c.11-3.41-.13-5.83,0-8.88-.11.14-.05-1.47-.19-1.08-.12-3.16.27-5.76-.13-6.91-.02-1.44.09-1.7.12-2.45v.34c-.01-2.69-.02-3.48-.01-5.48-.04-.99-.22-1.15-.18-2.94.07.57.06-.15.06-.83.01.43.04.56.08-.32-.02-.13-.04-.32-.05-.49.01-.01.01-.05.02-.02-.04-1.12-.05-.92-.06-.41-.01-.01-.01,0-.04.04.07-1.17-.02-3.09.11-3.23-.04-3.36-.16-5.76-.21-8.56.07-.32.13.34.15,1.15l-.02-1.98c.09.01.05,1.14.07,1.74.15-2.36-.15-4.87-.01-7.64l-.07-.57v-.16s.01,0,0,0c.02-.02.03-.16.04-.55l-.04.54s-.09-.61-.1-1.01c.08-.4.19.02.18-1.35.08-1.09-.04-3.08-.08-4.51-.01.77-.06.53-.08.19-.01-.68.07-1.08.04-1.6l.09-.05s.01-.01.02-.02h-.02c-.08-.15-.09-1.81-.14-2.04.08-.4.07,1.05.14,1.23-.01-2.75-.01-1.37-.02-4.12-.08-1.47-.11.26-.2-.44-.02-1.29-.09-2.55-.04-4.04l-.09.47c-.05-1.56-.07-2.7-.05-3.76h-1.09c.01,4.12.16,7.73.22,13.73-.05,7.47-.25,9.45-.16,17.18-.01,3.67.03,7.57.05,11.16,0-.02,0-.04,0-.06v.07s0,.05,0,.08c.15,1.71.01,4.74.13,6.77l-.08.78c.05.7.07,1.52.02,2.22l-.02-.05c.07,1.04.02,2.22.06,2.74l-.02-.05v1.26s-.02-.21-.02-.21c.07,1.81.07,3.69.05,5.35l.09-.14c-.12,3.53.11,4.82-.04,8.02l-.02-.05c.27,4.03-.19,6.37.07,10.52-.04-.52-.05.22-.08.19.04,1.91.05,3.96.25,3.98,0,1.39-.06,1.14-.14,1.32.09,0,.13,1.21.13,2.29l-.02-.5.02,3.11.16-.61c-.05,1.65-.2.42-.16,2l.14-.02c-.02,2.29-.23,3.64-.34,5.85-.06,9.2.29,19.09.06,27.66l-.11.37c-.15.16.22,2.36.08,2.69l.07.99c-.02.28-.06.88-.09.37,0,.92.02.95.07,1.62l-.09.98c-.07,3.64.11,6.73.07,10.55-.19,4.6-.02,13.25.08,18.24.22,7-.37,15.15-.12,22.32-.02.23.04.83.05.83l-.02,6.55s0,1.71.01,4.03h1.28c0-1.66-.04-3.07-.13-4.54.2-.4.02-2.95.08-3.79l.02.08c-.16-2.2.13-4.52-.01-6.63.01.08.07.13.07.61-.02-1.53-.07-3.64.05-3.76-.02-3.68.02-8.8-.16-11.17l.04.16c-.13-1.35-.02-1.73-.08-3.23.01-.07.02-.18.02-.18-.12-1.46-.01-4.27-.07-5.45l.08-.07-.02-2.91v1.09c-.23-.37.12-2.2-.02-4.31.04-1.98-.44-4.01-.34-6.06-.09-.98.16.85.09-.61.11-.05.07.69.15.32-.05-1.44.12-2.36.05-4.13l.08-.07c-.16-2.32.12-4.37-.04-5.9-.07-2.39.26-1.6.08-4.09l.12-.96c.02-1.07-.14-.76-.08-1.94.07.07.06-1.49.13-.8.12-2.67-.16-5.41.04-8.92-.15-.76-.06-2.53-.18-3.1.07-.09.01-3.53.15-1.56.01.18.01.47-.01.46l.08.23c.16-2-.09-3.64-.06-5.62-.04.59-.02,1.37-.08.84v-1.84s.08.39.08.39l.05-2.75-.09.39c.05-1.35.2-1.81.07-3.34-.07-.68-.12,1.28-.15-.14.06-1.79.15-4.48.19-6.77-.11.21-.11-.41-.12-1.04l.08-.07c-.12-2.43.19-.89.09-3.3Z"/>
        <path class="cls-2" d="M137.76,7.09s.03-.15.04-.56l-.04.56Z"/>
        <path class="cls-2" d="M136.43,28.22v-.03s0-.1-.01-.14v.17Z"/>
        <path class="cls-2" d="M138.17,75.74h0s-.13-.44-.13-.44c-.16-2.15.18-1.19-.05-3.52,0,.87-.2.35-.16-.8l.09.3c-.02-.66-.06-.87-.04-1.3.04.39.12.2.11-.76l.11.64-.15-1.8c.08-1.4-.02-3.62.09-4.19,0,0,.06-3.01-.07-3.7.07.57.11-.84.19-.64-.08-.83-.15-3.03-.06-3.93v.18c.12-3.41-.12-5.83,0-8.88-.11.14-.05-1.47-.18-1.08-.13-3.16.26-5.76-.14-6.91-.02-1.44.09-1.7.12-2.45l.02.34c-.04-2.69-.04-3.48-.02-5.48-.05-.99-.23-1.15-.19-2.94.07.57.06-.15.06-.83.01.43.05.56.09-.32-.02-.13-.04-.32-.05-.49,0-.01.01-.04.01-.04-.02-1.11-.05-.91-.06-.4-.01,0-.02.05-.05.18.09-1.16,0-3.23.12-3.37-.02-3.36-.15-5.76-.2-8.56.06-.32.12.34.14,1.15l-.02-1.98c.09.01.06,1.14.07,1.74.15-2.36-.15-4.87-.01-7.64l-.07-.57v-.16s-.08-.61-.09-1.02c.08-.4.19.02.19-1.35.08-1.09-.05-3.08-.08-4.51-.02.77-.06.53-.09.19,0-.68.08-1.08.05-1.6l.08-.05c-.08,0-.08-1.83-.13-2.06.08-.4.07,1.05.13,1.23-.01-2.75,0-1.37-.01-4.12-.08-1.47-.11.26-.2-.44-.02-1.29-.11-2.55-.04-4.04l-.11.47c-.05-1.56-.06-2.7-.04-3.76h-1.1c.01,4.11.18,7.73.22,13.73-.05,7.47-.23,9.45-.15,17.18-.02,3.7.02,7.63.05,11.25.15,1.71,0,4.74.13,6.77l-.08.78c.04.7.07,1.52.02,2.22l-.02-.05c.06,1.04.02,2.22.06,2.74l-.02-.05v1.26l-.04-.21c.07,1.81.08,3.69.05,5.35l.11-.14c-.12,3.53.09,4.82-.05,8.02l-.02-.05c.27,4.03-.18,6.37.08,10.52-.04-.52-.06.22-.08.19.02,1.91.05,3.96.25,3.98,0,1.39-.07,1.14-.14,1.32.08,0,.12,1.21.13,2.29l-.04-.5.04,3.11.16-.61c-.05,1.65-.21.42-.16,2l.14-.02c-.04,2.29-.23,3.64-.34,5.85-.06,9.2.29,19.09.05,27.66l-.11.37c-.15.16.22,2.36.08,2.69l.07.99c-.02.28-.05.88-.08.37-.01.92.01.95.06,1.62l-.09.98c-.07,3.64.11,6.73.07,10.55-.19,4.6-.01,13.25.09,18.24.22,7-.37,15.15-.12,22.32-.02.23.02.83.04.83v6.55s-.01,1.71,0,4.03h1.26c0-1.66-.04-3.07-.13-4.54.21-.4.02-2.95.09-3.79v.08c-.14-2.2.14-4.52,0-6.63.02.08.07.13.08.61-.04-1.53-.07-3.64.05-3.76-.04-3.68.02-8.8-.16-11.17l.02.16c-.12-1.35-.01-1.73-.08-3.23.02-.07.02-.16.03-.17,0,.04,0,.09,0,.12,0-.08,0-.11,0-.13,0,0,0,0,0,0-.13-1.46-.02-4.27-.07-5.45l.07-.07v-2.91s-.04,1.09-.04,1.09c-.21-.37.14-2.2,0-4.31.02-1.98-.44-4.01-.34-6.06-.02-.16-.02-.25-.02-.28.06.13.16.68.11-.33.12-.05.07.69.16.32-.06-1.44.12-2.36.04-4.13l.08-.07c-.15-2.32.12-4.37-.04-5.9-.07-2.39.26-1.6.09-4.09l.12-.96c.02-1.07-.14-.76-.09-1.94.08.07.07-1.49.14-.8.12-2.67-.18-5.41.02-8.92-.14-.76-.06-2.53-.16-3.1.06-.09.01-3.53.15-1.56,0,.18,0,.46-.02.46l.09.23c.15-2-.09-3.64-.07-5.62-.02.59-.02,1.37-.08.84v-1.84s.08.39.08.39l.05-2.75-.09.39c.05-1.35.2-1.81.07-3.34-.07-.68-.12,1.28-.14-.14.06-1.79.15-4.48.18-6.77-.11.21-.09-.41-.12-1.04l.09-.07c-.13-2.43.19-.89.09-3.29Z"/>
        <path class="cls-2" d="M143.75,145.74c0-.09,0-.12,0-.13,0,.04,0,.09,0,.13Z"/>
        <path class="cls-2" d="M144.09,73.58l-.12-.43c-.18-2.18.18-1.17-.06-3.58.01.95-.19.44-.15-.74l.08.3c-.01-.66-.05-.87-.04-1.3.05.39.13.2.11-.76l.11.64-.15-1.8c.09-1.4-.02-3.62.09-4.19,0,0,.06-3.01-.07-3.7.08.61.12-1.05.21-.57-.09-.78-.16-3.08-.07-4v.18c.11-3.41-.13-5.83-.01-8.88-.09.14-.04-1.47-.18-1.08-.13-3.16.27-5.76-.13-6.91-.02-1.44.09-1.7.12-2.45v.34c-.01-2.69-.02-3.48-.01-5.48-.04-.99-.22-1.15-.18-2.94.07.57.06-.15.06-.83.01.43.04.56.08-.32-.02-.12-.04-.32-.05-.49.01-.01.01-.05.02-.02-.04-1.12-.06-.92-.06-.41-.01-.02-.04.02-.05.18.09-1.16-.01-3.23.12-3.37-.04-3.36-.16-5.76-.21-8.56.07-.32.13.34.15,1.15l-.02-1.98c.09.01.05,1.14.07,1.74.15-2.36-.15-4.87-.01-7.64l-.07-.57v-.16s.01,0,0,0c.02-.02.03-.17.04-.55l-.04.54s-.09-.61-.1-1.01c.08-.4.19.02.18-1.35.08-1.09-.04-3.08-.08-4.51-.01.77-.06.53-.08.2-.01-.69.07-1.09.04-1.62l.09-.05s.01-.01.02-.02h-.02c-.08-.15-.09-1.81-.14-2.04.08-.4.07,1.07.14,1.23-.01-2.75-.01-1.37-.02-4.12-.08-1.47-.11.27-.2-.43-.02-1.3-.09-2.56-.04-4.05l-.09.47c-.02-.59-.04-1.11-.05-1.6h-1.08c.05,3.31.16,6.63.21,11.58-.05,7.47-.25,9.45-.16,17.18-.01,3.67.02,7.57.05,11.17,0-.02,0-.05,0-.06v.08s0,.05,0,.07c.15,1.71.01,4.74.13,6.77l-.08.78c.05.7.07,1.52.02,2.22l-.02-.05c.07,1.04.02,2.22.06,2.74l-.02-.05v1.26s-.02-.21-.02-.21c.07,1.81.07,3.7.04,5.35l.11-.14c-.12,3.53.11,4.82-.04,8.02l-.02-.05c.27,4.03-.19,6.37.07,10.52-.04-.52-.05.22-.08.19.04,1.91.05,3.96.25,3.98,0,1.39-.06,1.14-.14,1.32.09,0,.13,1.21.13,2.29l-.02-.5.02,3.11.16-.61c-.05,1.65-.2.42-.16,2h.14c-.02,2.27-.23,3.62-.34,5.83-.06,9.2.29,19.09.06,27.66l-.11.37c-.15.18.22,2.36.08,2.69l.07.99c-.02.28-.06.88-.09.37,0,.92.02.95.07,1.62l-.09.98c-.08,3.64.11,6.73.07,10.55-.2,4.6-.02,13.25.08,18.24.22,7-.37,15.15-.12,22.32-.02.23.02.83.05.83l-.02,6.57s0,2.83.02,6.17h1.24c.04-2.69.04-4.61-.11-6.7.2-.4.02-2.95.08-3.79l.02.08c-.16-2.19.13-4.52-.01-6.63.01.08.07.13.07.61-.02-1.53-.07-3.64.05-3.76-.04-3.68.02-8.8-.16-11.17l.04.16c-.13-1.33-.02-1.73-.08-3.23.01-.08.02-.18.02-.18-.12-1.46-.01-4.27-.07-5.45l.08-.07-.02-2.91v1.09c-.23-.37.12-2.2-.02-4.31.04-1.98-.44-4.01-.34-6.06-.09-.98.16.85.09-.6.11-.06.07.68.15.3-.05-1.44.12-2.36.05-4.13l.08-.07c-.16-2.32.12-4.37-.04-5.9-.07-2.39.26-1.6.08-4.09l.12-.96c.02-1.07-.14-.76-.08-1.94.07.07.06-1.49.13-.8.12-2.67-.16-5.41.04-8.92-.15-.76-.06-2.53-.18-3.1.07-.09.01-3.53.15-1.56.01.18.01.47-.01.46l.08.23c.16-2-.09-3.64-.06-5.62-.04.59-.02,1.37-.08.84v-1.84s.08.39.08.39l.05-2.75-.09.39c.05-1.35.2-1.81.07-3.34-.07-.68-.12,1.28-.15-.14.06-1.79.15-4.48.19-6.77-.11.21-.11-.41-.12-1.04l.08-.07c-.12-2.43.19-.89.09-3.3Z"/>
        <path class="cls-2" d="M149.62,4.94s.04-.15.04-.56l-.04.56Z"/>
        <path class="cls-2" d="M148.28,26.07v-.03s0-.1-.01-.14v.17Z"/>
        <path class="cls-2" d="M150.03,73.59h0s-.13-.44-.13-.44c-.18-2.15.18-1.19-.05-3.51,0,.85-.2.34-.16-.81l.09.3c-.02-.66-.06-.87-.04-1.3.04.39.12.2.11-.76l.11.64-.15-1.8c.08-1.4-.02-3.62.09-4.19,0,0,.06-2.74-.06-3.58.07.2.11-1.12.19-.69-.09-.78-.16-3.08-.07-4v.18c.12-3.41-.12-5.83,0-8.88-.11.14-.05-1.47-.18-1.08-.13-3.16.26-5.76-.14-6.91-.02-1.44.09-1.7.12-2.45l.02.34c-.04-2.69-.04-3.48-.04-5.48-.04-.99-.22-1.15-.18-2.94.07.57.06-.15.06-.83.01.43.05.56.09-.32-.02-.12-.04-.32-.05-.49,0-.01,0-.05.01-.02-.02-1.12-.05-.92-.06-.41-.01,0-.02.05-.05.18.09-1.16,0-3.23.12-3.37-.02-3.36-.15-5.76-.21-8.56.07-.32.13.34.15,1.15l-.02-1.98c.09.01.06,1.14.07,1.74.15-2.36-.15-4.87-.01-7.64l-.07-.57v-.16s-.08-.61-.09-1.02c.08-.4.19.02.19-1.35.07-1.09-.05-3.08-.08-4.51-.02.77-.06.53-.09.2,0-.69.08-1.09.05-1.62l.08-.05c-.08,0-.08-1.83-.13-2.06.08-.4.07,1.07.13,1.23-.01-2.75,0-1.37-.01-4.12-.08-1.47-.11.27-.2-.43-.02-1.3-.11-2.56-.04-4.05l-.11.47c-.02-.59-.04-1.11-.04-1.6h-1.09c.06,3.31.18,6.64.21,11.58-.05,7.47-.23,9.45-.15,17.18-.02,3.7.02,7.63.05,11.25.15,1.71,0,4.74.13,6.77l-.08.78c.04.7.07,1.52.02,2.22l-.02-.05c.06,1.04.02,2.22.06,2.74l-.02-.05v1.26l-.04-.21c.07,1.81.08,3.7.05,5.35l.11-.14c-.12,3.53.09,4.82-.05,8.02l-.02-.05c.27,4.03-.18,6.37.07,10.52-.02-.52-.05.22-.07.19.02,1.91.05,3.96.25,3.98,0,1.39-.07,1.14-.14,1.32.08,0,.12,1.21.13,2.29l-.04-.5.04,3.11.16-.61c-.05,1.65-.21.42-.16,2h.14c-.04,2.27-.23,3.62-.34,5.83-.06,9.2.29,19.09.05,27.66l-.11.37c-.15.18.22,2.36.08,2.69l.07.99c-.02.28-.05.88-.08.37-.01.92.01.95.06,1.62l-.09.98c-.07,3.64.11,6.73.07,10.55-.19,4.6-.01,13.25.09,18.24.22,7-.37,15.15-.12,22.32-.02.23.02.83.04.83v6.57s-.01,2.83.01,6.17h1.23c.05-2.69.04-4.61-.11-6.7.21-.4.02-2.95.09-3.79v.08c-.14-2.19.14-4.52,0-6.63.02.08.07.13.08.61-.04-1.53-.07-3.64.05-3.76-.04-3.68.02-8.8-.16-11.17l.02.16c-.12-1.33-.01-1.73-.08-3.23.02-.08.02-.16.03-.17,0,.04,0,.09,0,.12,0-.08,0-.11,0-.13,0,0,0,0,0,0-.13-1.46-.02-4.27-.07-5.45l.07-.07v-2.91s-.04,1.09-.04,1.09c-.21-.37.14-2.2,0-4.31.02-1.98-.44-4.01-.34-6.06-.02-.16-.02-.25-.02-.28.06.13.16.68.11-.32.12-.06.07.68.16.3-.06-1.44.11-2.36.04-4.13l.08-.07c-.15-2.32.12-4.37-.04-5.9-.07-2.39.26-1.6.09-4.09l.12-.96c.02-1.07-.14-.76-.09-1.94.08.07.07-1.49.14-.8.11-2.67-.18-5.41.02-8.92-.14-.76-.06-2.53-.16-3.1.06-.09.01-3.53.15-1.56,0,.18,0,.46-.02.46l.09.23c.15-2-.09-3.64-.07-5.62-.02.59-.02,1.37-.08.84v-1.84s.08.39.08.39l.05-2.75-.09.39c.05-1.35.2-1.81.07-3.34-.07-.68-.12,1.28-.14-.14.06-1.79.15-4.48.18-6.77-.11.21-.09-.41-.12-1.04l.09-.07c-.13-2.43.19-.89.09-3.29Z"/>
        <path class="cls-2" d="M155.61,146.43c0-.09,0-.12,0-.13,0,.04,0,.09,0,.13Z"/>
        <path class="cls-2" d="M155.95,74.27l-.12-.43c-.18-2.17.18-1.17-.06-3.58.01.95-.19.44-.15-.73l.08.29c-.01-.66-.06-.87-.04-1.3.05.39.12.2.11-.75l.11.63-.15-1.8c.09-1.4-.02-3.62.09-4.19,0,0,.06-2.74-.06-3.58.07.19.11-.95.19-.76-.08-.83-.16-3.03-.06-3.93v.18c.11-3.41-.13-5.83-.01-8.88-.09.14-.05-1.47-.18-1.08-.13-3.16.27-5.76-.13-6.91-.02-1.43.09-1.7.11-2.45l.02.35c-.04-2.7-.04-3.48-.02-5.49-.04-.99-.22-1.15-.18-2.94.07.57.06-.15.06-.83.01.43.04.56.08-.32-.02-.12-.04-.32-.05-.49.01-.01.01-.05.02-.02-.04-1.12-.06-.92-.06-.41-.01-.01-.01,0-.04.05.07-1.18-.02-3.1.11-3.24-.04-3.36-.16-5.76-.21-8.56.07-.32.13.34.15,1.15l-.02-1.98c.09.01.05,1.14.07,1.74.15-2.35-.15-4.87-.01-7.63l-.08-.59.02-.16s0,0,0,0c.02-.03.03-.17.04-.55l-.04.54s-.09-.61-.11-1.01c.09-.4.2.02.19-1.35.08-1.09-.04-3.08-.08-4.51-.01.77-.06.53-.08.2-.01-.69.07-1.09.04-1.62l.09-.05s.01-.01.02-.02h-.02c-.08-.15-.09-1.81-.14-2.04.08-.4.07,1.07.14,1.23-.01-2.75-.01-1.37-.02-4.12-.08-1.47-.11.27-.2-.43-.02-1.3-.09-2.56-.04-4.05l-.09.47c-.02-.88-.05-1.62-.06-2.29h-1.08c.04,3.56.18,6.98.22,12.27-.05,7.47-.25,9.45-.16,17.19-.01,3.66.02,7.58.05,11.16,0-.02,0-.05,0-.07v.09s0,.04,0,.06c.15,1.71.01,4.74.13,6.77l-.08.78c.05.7.07,1.52.02,2.22l-.02-.05c.07,1.04.02,2.22.06,2.74l-.02-.05v1.28s-.02-.22-.02-.22c.07,1.81.07,3.7.04,5.35l.11-.14c-.12,3.53.09,4.82-.04,8.02l-.02-.05c.27,4.03-.19,6.37.07,10.52-.04-.52-.06.22-.08.19.04,1.91.05,3.96.25,3.98,0,1.4-.06,1.14-.14,1.32.09,0,.13,1.21.13,2.29l-.04-.5.04,3.11.16-.61c-.05,1.65-.2.42-.16,2h.14c-.02,2.27-.23,3.62-.34,5.83-.06,9.2.29,19.1.06,27.66l-.11.39c-.15.16.22,2.35.08,2.68l.07.99c-.02.28-.06.88-.09.37,0,.92.02.95.07,1.62l-.09.98c-.08,3.64.11,6.73.07,10.56-.2,4.59-.02,13.24.08,18.22.22,7-.37,15.15-.12,22.32-.02.23.02.83.05.83l-.02,6.57s0,2.46.01,5.48h1.26c.02-2.34.01-4.11-.12-6,.2-.39.02-2.95.08-3.79l.02.08c-.16-2.19.13-4.52-.01-6.63.01.08.07.13.07.61-.02-1.53-.07-3.64.05-3.76-.04-3.68.02-8.8-.16-11.16l.04.15c-.13-1.33-.02-1.73-.08-3.23.01-.08.02-.18.02-.18-.12-1.46-.01-4.26-.07-5.44l.08-.08-.02-2.91v1.09c-.23-.37.12-2.2-.02-4.31.04-1.98-.44-4.01-.34-6.06-.09-.98.16.87.09-.6.11-.05.07.68.15.3-.05-1.44.12-2.35.04-4.13l.09-.07c-.16-2.31.12-4.37-.04-5.9-.07-2.39.26-1.6.08-4.09l.12-.96c.02-1.07-.14-.76-.08-1.94.07.07.06-1.49.13-.8.12-2.67-.16-5.41.04-8.92-.15-.76-.06-2.53-.18-3.1.07-.09.01-3.53.15-1.56.01.18.01.48-.01.46l.08.23c.16-2-.09-3.64-.06-5.62-.04.59-.02,1.37-.08.84v-1.84s.08.39.08.39l.04-2.74-.08.37c.05-1.35.2-1.81.07-3.32-.07-.69-.12,1.26-.15-.15.06-1.79.15-4.48.19-6.77-.11.21-.11-.41-.12-1.04l.08-.07c-.12-2.43.19-.89.09-3.3Z"/>
        <path class="cls-2" d="M161.48,5.63s.04-.15.04-.56l-.04.56Z"/>
        <path class="cls-2" d="M160.14,26.76v-.03s0-.1-.01-.14v.17Z"/>
        <path class="cls-2" d="M161.88,74.28h0s-.13-.44-.13-.44c-.18-2.14.18-1.19-.05-3.51,0,.85-.2.34-.16-.8l.09.29c-.02-.66-.06-.87-.05-1.3.05.39.13.2.12-.75l.11.63-.16-1.8c.09-1.4-.01-3.62.11-4.19,0,0,.06-3.01-.07-3.7.07.57.11-.84.19-.64-.08-.83-.15-3.03-.06-3.93v.18c.12-3.41-.12-5.83,0-8.88-.11.14-.05-1.47-.18-1.08-.13-3.16.26-5.76-.14-6.91-.02-1.43.09-1.7.12-2.45l.02.35c-.04-2.7-.04-3.48-.04-5.49-.04-.99-.22-1.15-.18-2.94.07.57.06-.15.06-.83.01.43.04.56.09-.32-.02-.12-.04-.32-.05-.49,0-.01,0-.05.01-.02-.02-1.12-.05-.92-.06-.41-.01,0-.02.05-.05.19.09-1.16,0-3.24.12-3.38-.02-3.36-.15-5.76-.21-8.56.07-.32.13.34.15,1.15l-.02-1.98c.09.01.06,1.14.07,1.74.15-2.35-.15-4.87-.01-7.63l-.07-.59v-.16s-.08-.61-.09-1.02c.08-.4.19.02.19-1.35.07-1.09-.05-3.08-.08-4.51-.02.77-.07.53-.09.2,0-.69.08-1.09.05-1.62l.08-.05c-.08,0-.08-1.83-.13-2.06.08-.4.07,1.07.13,1.23-.01-2.75,0-1.37-.01-4.12-.08-1.47-.11.27-.2-.43-.02-1.3-.11-2.56-.04-4.05l-.11.47c-.04-.87-.05-1.62-.05-2.29h-1.08c.04,3.56.18,6.99.21,12.27-.05,7.47-.23,9.45-.15,17.19-.02,3.69.02,7.63.05,11.24.15,1.71,0,4.74.13,6.77l-.08.78c.04.7.07,1.52.02,2.22l-.02-.05c.06,1.04.02,2.22.06,2.74l-.04-.05v1.28s-.02-.22-.02-.22c.07,1.81.08,3.7.05,5.35l.11-.14c-.12,3.53.09,4.82-.05,8.02l-.02-.05c.27,4.03-.18,6.37.07,10.52-.02-.52-.05.22-.07.19.02,1.91.05,3.96.25,3.98,0,1.4-.07,1.14-.14,1.32.08,0,.12,1.21.13,2.29l-.04-.5.04,3.11.16-.61c-.05,1.65-.21.42-.16,2h.14c-.04,2.27-.25,3.62-.34,5.83-.06,9.2.29,19.1.05,27.66l-.11.39c-.15.16.22,2.35.08,2.68l.07.99c-.02.28-.05.88-.08.37-.01.92.01.95.06,1.62l-.09.98c-.07,3.64.11,6.73.07,10.56-.19,4.59-.01,13.24.09,18.22.22,7-.37,15.15-.12,22.32-.02.23.02.83.04.83v6.57s-.01,2.46,0,5.48h1.25c.04-2.33.01-4.11-.12-6,.2-.39.02-2.95.09-3.79v.08c-.14-2.19.14-4.52,0-6.63.02.08.07.13.08.61-.04-1.53-.07-3.64.05-3.76-.04-3.68.02-8.8-.16-11.16l.02.15c-.13-1.33-.01-1.73-.08-3.23.02-.07.02-.15.03-.17,0,.04,0,.09,0,.12,0-.08,0-.11,0-.12,0,0,0,0,0,0-.13-1.46-.02-4.26-.07-5.44l.07-.08v-2.91s-.04,1.09-.04,1.09c-.21-.37.14-2.2,0-4.31.02-1.98-.44-4.01-.34-6.06-.02-.16-.02-.25-.02-.28.06.13.16.69.11-.32.12-.05.07.68.16.3-.06-1.44.11-2.35.04-4.13l.08-.07c-.15-2.31.12-4.37-.04-5.9-.07-2.39.26-1.6.09-4.09l.12-.96c.02-1.07-.14-.76-.09-1.94.08.07.06-1.49.14-.8.11-2.67-.18-5.41.02-8.92-.14-.76-.06-2.53-.16-3.1.06-.09.01-3.53.14-1.56.01.18.01.48-.01.46l.08.23c.16-2-.08-3.64-.06-5.62-.02.59-.02,1.37-.08.84v-1.84s.08.39.08.39l.05-2.74-.09.37c.05-1.35.2-1.81.07-3.32-.07-.69-.12,1.26-.14-.15.06-1.79.15-4.48.18-6.77-.11.21-.09-.41-.12-1.04l.08-.07c-.12-2.43.2-.89.11-3.29Z"/>
        <path class="cls-2" d="M167.4,5.29s.04-.15.04-.56l-.04.56Z"/>
        <path class="cls-2" d="M167.47,146.09c0-.09,0-.12,0-.13,0,.04,0,.09,0,.13Z"/>
        <path class="cls-2" d="M167.81,73.91l-.12-.42c-.18-2.18.18-1.17-.06-3.59.01.96-.19.46-.15-.73l.08.29c-.02-.64-.06-.87-.04-1.3.05.39.12.21.11-.75l.11.64-.15-1.81c.09-1.39-.02-3.62.09-4.19,0,0,.06-3-.07-3.69.08.6.12-1.05.21-.59-.09-.77-.18-3.08-.07-4v.18c.11-3.41-.13-5.82-.01-8.87-.09.14-.05-1.47-.18-1.08-.13-3.16.27-5.77-.13-6.91-.02-1.44.09-1.71.11-2.45l.02.34c-.04-2.69-.04-3.48-.02-5.48-.04-.99-.22-1.16-.18-2.95.07.59.06-.15.06-.82.01.43.04.56.08-.32-.02-.13-.04-.32-.05-.5.01,0,.01-.02.02-.02-.04-1.11-.06-.92-.06-.4-.01-.02-.04.01-.05.18.09-1.16-.01-3.23.12-3.37-.04-3.36-.16-5.77-.21-8.57.07-.3.12.34.15,1.16l-.02-1.99c.09.02.05,1.15.07,1.76.15-2.36-.15-4.87-.01-7.64l-.08-.57v-.16s-.07-.62-.09-1.03c.08-.39.2.04.19-1.33.08-1.09-.04-3.09-.08-4.51-.01.76-.06.52-.09.19,0-.69.08-1.08.05-1.62l.09-.05c-.08-.16-.09-1.83-.14-2.06.08-.39.07,1.07.14,1.24-.01-2.75-.01-1.38-.02-4.13-.08-1.46-.11.27-.2-.43-.02-1.3-.09-2.56-.04-4.05l-.09.48c-.02-.73-.05-1.37-.05-1.95h-1.09c.05,3.43.18,6.8.22,11.92-.05,7.47-.25,9.46-.16,17.19-.01,3.67.02,7.59.05,11.17,0-.03,0-.05,0-.08v.1s0,.03,0,.05c.15,1.72.01,4.74.13,6.77l-.08.8c.05.69.07,1.51.02,2.21l-.02-.05c.07,1.05.02,2.22.06,2.74l-.02-.04v1.26s-.02-.22-.02-.22c.07,1.83.07,3.7.04,5.35l.11-.13c-.12,3.52.09,4.82-.04,8.01l-.02-.04c.27,4.03-.19,6.37.07,10.52-.04-.52-.06.22-.08.18.04,1.92.05,3.96.25,3.99,0,1.39-.06,1.14-.14,1.31.09,0,.13,1.21.13,2.29l-.04-.5.04,3.13.16-.61c-.05,1.65-.2.41-.16,2l.14-.02c-.02,2.29-.23,3.63-.34,5.84-.06,9.21.29,19.1.06,27.67l-.11.37c-.15.16.22,2.36.08,2.69l.07.99c-.04.28-.06.87-.09.37,0,.92.02.94.07,1.6l-.09.99c-.08,3.63.11,6.72.07,10.55-.2,4.6-.02,13.24.08,18.22.22,7.01-.37,15.16-.12,22.32-.02.23.02.84.05.83l-.02,6.57s0,2.65.01,5.83h1.24c.05-2.52.04-4.37-.09-6.36.2-.39.01-2.95.08-3.78v.07c-.14-2.19.15-4.51.01-6.63.01.06.05.11.06.33-.01-1.5-.05-3.37.06-3.46-.04-3.68.02-8.81-.16-11.17l.04.16c-.13-1.35-.02-1.74-.08-3.24.01-.07.02-.16.02-.16-.12-1.46-.01-4.27-.07-5.45l.08-.08-.02-2.9v1.09c-.23-.39.12-2.2-.02-4.32.04-1.98-.44-4-.34-6.06-.09-.97.16.87.08-.6.12-.05.07.68.16.3-.05-1.43.12-2.35.04-4.12l.09-.08c-.16-2.31.12-4.35-.04-5.9-.07-2.38.26-1.59.08-4.07l.12-.97c.02-1.05-.14-.76-.08-1.93.07.07.06-1.49.13-.8.12-2.67-.16-5.42.04-8.93-.15-.76-.06-2.53-.18-3.09.07-.09.01-3.55.15-1.56.01.16.01.47-.01.44l.08.23c.16-2-.09-3.63-.07-5.62-.02.6-.01,1.37-.07.85v-1.84s.08.37.08.37l.04-2.74-.08.37c.05-1.33.2-1.81.07-3.32-.07-.68-.12,1.28-.15-.14.06-1.8.15-4.48.19-6.78-.11.21-.11-.4-.13-1.03l.09-.08c-.12-2.42.19-.89.09-3.3Z"/>
        <path class="cls-2" d="M173.33,5.29s.03-.15.04-.56l-.04.56Z"/>
        <path class="cls-2" d="M172,26.41v-.03s0-.1-.01-.14v.17Z"/>
        <path class="cls-2" d="M173.74,73.93h0s-.13-.43-.13-.43c-.18-2.18.19-1.17-.06-3.59.02.96-.19.46-.15-.73l.08.29c-.01-.64-.05-.87-.04-1.3.05.39.13.21.12-.75l.11.64-.16-1.81c.09-1.39-.02-3.62.11-4.19,0,0,.06-3-.08-3.69.08.6.12-1.05.21-.59-.09-.77-.16-3.08-.07-4v.18c.12-3.41-.12-5.82,0-8.87-.11.14-.05-1.47-.18-1.08-.13-3.16.26-5.77-.14-6.91-.02-1.44.09-1.71.12-2.45l.02.34c-.04-2.69-.04-3.48-.04-5.48-.04-.99-.22-1.16-.18-2.95.07.59.06-.15.06-.82.01.43.04.56.09-.32-.02-.13-.04-.32-.05-.5,0,0,0-.02.01-.02-.02-1.11-.05-.92-.06-.4-.01-.02-.02.01-.05.18.09-1.16,0-3.23.12-3.37-.02-3.36-.15-5.77-.21-8.57.07-.3.13.34.15,1.16l-.02-1.99c.09.02.06,1.15.07,1.76.15-2.36-.15-4.87-.01-7.64l-.07-.57v-.16s-.08-.62-.09-1.03c.08-.39.19.04.19-1.33.07-1.09-.05-3.09-.08-4.51-.02.76-.07.52-.09.19,0-.69.08-1.08.05-1.62l.08-.05c-.08-.16-.08-1.83-.13-2.06.08-.39.07,1.07.13,1.24-.01-2.75,0-1.38-.01-4.13-.08-1.46-.11.27-.21-.43-.01-1.3-.09-2.56-.02-4.05l-.11.48c-.02-.73-.04-1.37-.04-1.95h-1.09c.05,3.43.18,6.8.21,11.92-.05,7.47-.23,9.46-.16,17.19-.01,3.69.04,7.63.06,11.24.15,1.72,0,4.74.13,6.77l-.09.8c.05.69.08,1.51.04,2.21l-.02-.05c.06,1.05.02,2.22.06,2.74l-.04-.04v1.26s-.02-.22-.02-.22c.07,1.83.08,3.7.05,5.35l.11-.13c-.12,3.52.09,4.82-.05,8.01l-.02-.04c.27,4.03-.18,6.37.07,10.52-.02-.52-.05.22-.07.18.02,1.92.05,3.96.25,3.99-.01,1.39-.07,1.14-.14,1.31.08,0,.12,1.21.13,2.29l-.04-.5.02,3.13.18-.61c-.05,1.65-.21.41-.16,2l.14-.02c-.04,2.29-.25,3.63-.34,5.84-.06,9.21.29,19.1.05,27.67l-.11.37c-.15.16.22,2.36.08,2.69l.07.99c-.02.28-.06.87-.08.37-.01.92.01.94.06,1.6l-.09.99c-.07,3.63.11,6.72.07,10.55-.19,4.6-.01,13.24.09,18.22.22,7.01-.37,15.16-.12,22.32-.02.23.02.84.04.83v6.57s-.01,2.65,0,5.83h1.24c.05-2.52.02-4.37-.11-6.36.2-.39.02-2.95.09-3.78v.07c-.14-2.19.14-4.51,0-6.63.01.08.07.13.08.62-.04-1.55-.08-3.65.05-3.76-.04-3.68.02-8.81-.16-11.17l.02.16c-.13-1.35-.01-1.74-.08-3.24.01-.07.02-.15.03-.16,0,.04,0,.08,0,.12,0-.08,0-.11,0-.12,0,0,0,0,0,0-.13-1.46-.02-4.27-.08-5.45l.08-.08v-2.9s-.04,1.09-.04,1.09c-.21-.39.14-2.2,0-4.32.02-1.98-.44-4-.34-6.06-.02-.16-.02-.25-.02-.28.05.13.16.69.11-.32.12-.05.07.68.16.3-.06-1.43.11-2.35.04-4.12l.08-.08c-.15-2.31.12-4.35-.04-5.9-.07-2.38.26-1.59.09-4.07l.12-.97c.01-1.05-.15-.76-.09-1.93.08.07.06-1.49.13-.8.12-2.67-.16-5.42.04-8.93-.14-.76-.06-2.53-.16-3.09.06-.09.01-3.55.14-1.56.01.16.01.47-.01.44l.08.23c.16-2-.08-3.63-.06-5.62-.02.6-.02,1.37-.08.85v-1.84s.08.37.08.37l.05-2.74-.09.37c.05-1.33.2-1.81.07-3.32-.07-.68-.12,1.28-.14-.14.06-1.8.15-4.48.18-6.78-.11.21-.09-.4-.12-1.03l.08-.08c-.12-2.42.2-.89.11-3.29Z"/>
        <path class="cls-2" d="M179.26,5.98s.04-.15.04-.56l-.04.56Z"/>
        <path class="cls-2" d="M179.32,146.65s0,.09,0,.13c0-.09,0-.12,0-.13Z"/>
        <path class="cls-2" d="M179.66,74.61l-.12-.42c-.18-2.18.18-1.17-.06-3.59.01.96-.2.46-.15-.73l.08.3c-.02-.66-.06-.88-.04-1.31.05.39.12.21.11-.75l.11.64-.15-1.81c.09-1.39-.02-3.61.09-4.18,0,0,.06-2.74-.06-3.58.07.19.11-.95.19-.76-.08-.82-.16-3.04-.06-3.93v.16c.11-3.39-.13-5.82-.01-8.87-.09.14-.05-1.47-.18-1.08-.13-3.16.27-5.77-.13-6.91-.02-1.44.09-1.71.11-2.45l.02.34c-.04-2.69-.04-3.48-.02-5.48-.04-.99-.22-1.16-.19-2.95.08.59.07-.15.07-.82.01.43.04.56.08-.32-.02-.13-.04-.32-.05-.49.01-.01.01-.04.02-.04-.04-1.11-.06-.91-.06-.4-.01-.01-.02-.01-.04.04.07-1.18-.02-3.09.11-3.23-.04-3.36-.16-5.77-.21-8.57.06-.3.12.34.15,1.16l-.02-1.99c.09.02.05,1.15.07,1.76.15-2.36-.15-4.87-.01-7.64l-.08-.57v-.16s-.07-.61-.09-1.03c.08-.39.2.04.19-1.33.08-1.09-.04-3.09-.08-4.51-.01.76-.06.52-.09.19,0-.68.08-1.08.05-1.6l.09-.05s.01-.01.02-.02h-.02c-.08-.15-.09-1.81-.14-2.05.08-.39.07,1.07.13,1.24,0-2.75,0-1.38-.01-4.13-.08-1.46-.11.27-.2-.43-.02-1.29-.09-2.55-.04-4.04l-.09.47c-.04-1.03-.06-1.87-.06-2.65h-1.08c.04,3.68.18,7.15.22,12.61-.05,7.48-.25,9.46-.16,17.19-.01,3.68.02,7.59.05,11.18,0-.03,0-.06,0-.08v.1s0,.02,0,.04c.15,1.72.01,4.74.13,6.77l-.08.8c.05.69.07,1.51.02,2.21l-.02-.04c.07,1.04.02,2.21.06,2.74l-.02-.05v1.26s-.02-.21-.02-.21c.07,1.81.07,3.69.04,5.34l.11-.13c-.12,3.52.09,4.82-.04,8.01l-.02-.04c.27,4.03-.19,6.37.07,10.52-.04-.52-.06.22-.08.18.04,1.92.05,3.96.25,3.99,0,1.39-.06,1.14-.14,1.32.09,0,.13,1.19.13,2.28l-.04-.5.04,3.13.16-.61c-.05,1.65-.2.42-.16,2l.14-.02c-.02,2.29-.23,3.63-.34,5.85-.06,9.2.29,19.09.06,27.66l-.11.37c-.15.16.22,2.36.08,2.69l.07.99c-.04.28-.06.87-.09.37,0,.92.02.95.07,1.6l-.09.99c-.08,3.63.11,6.72.07,10.55-.2,4.6-.02,13.25.08,18.22.22,7.01-.37,15.16-.12,22.32-.02.23.02.84.05.83l-.02,6.57s0,2.27.01,5.14h1.25c.04-2.17.01-3.85-.11-5.65.2-.4.01-2.96.08-3.79v.07c-.14-2.19.15-4.51.01-6.63.01.06.05.11.06.33-.01-1.5-.05-3.37.06-3.46-.04-3.68.02-8.81-.16-11.17l.04.16c-.13-1.35-.02-1.74-.08-3.24.01-.07.02-.16.02-.16-.13-1.46-.01-4.27-.07-5.45l.08-.07-.02-2.91v1.09c-.23-.37.12-2.2-.02-4.32.04-1.98-.44-4-.34-6.05-.02-.16-.02-.25-.02-.28.06.13.16.68.11-.33.12-.05.07.69.16.3-.05-1.43.12-2.35.04-4.12l.09-.07c-.16-2.32.12-4.37-.04-5.9-.07-2.39.26-1.6.08-4.09l.12-.97c.02-1.05-.14-.76-.08-1.93.07.07.06-1.49.13-.8.12-2.67-.16-5.42.04-8.92-.15-.77-.06-2.54-.18-3.1.07-.09.01-3.55.15-1.56.01.16.01.47-.01.44l.08.25c.16-2-.09-3.64-.07-5.62-.02.59-.01,1.36-.07.84v-1.84s.08.37.08.37l.04-2.74-.08.37c.05-1.33.2-1.81.07-3.32-.07-.68-.12,1.28-.15-.14.06-1.8.15-4.48.18-6.78-.09.22-.09-.4-.12-1.03l.09-.08c-.12-2.42.19-.89.09-3.3Z"/>
        <path class="cls-2" d="M183.85,27.11v-.03s0-.1-.01-.14v.17Z"/>
        <path class="cls-2" d="M185.6,74.62h0s-.13-.43-.13-.43c-.18-2.18.19-1.17-.06-3.59.02.96-.19.46-.15-.73l.08.3c-.01-.66-.05-.88-.04-1.31.05.39.13.21.12-.75l.11.64-.16-1.81c.09-1.39-.02-3.61.11-4.18,0,0,.06-2.75-.07-3.59.07.23.11-.94.19-.75-.08-.82-.15-3.04-.06-3.93v.16c.12-3.39-.12-5.82,0-8.87-.11.14-.05-1.47-.18-1.08-.13-3.16.26-5.77-.14-6.91-.02-1.44.09-1.71.12-2.45l.02.34c-.04-2.69-.04-3.48-.04-5.48-.04-.99-.22-1.16-.18-2.95.07.59.06-.15.06-.82.01.43.04.56.09-.32-.02-.13-.04-.32-.05-.49,0-.01,0-.04.01-.04-.02-1.11-.05-.91-.06-.4-.01-.02-.02.01-.05.18.09-1.16-.01-3.23.12-3.37-.02-3.36-.15-5.77-.21-8.57.07-.3.13.34.15,1.16l-.02-1.99c.09.02.06,1.15.07,1.76.15-2.36-.15-4.87-.01-7.64l-.07-.57v-.16s.01,0,.01,0c.02,0,.03-.15.04-.56l-.04.56s-.09-.61-.1-1.03c.08-.39.19.04.19-1.33.07-1.09-.05-3.09-.09-4.51-.01.76-.06.52-.08.19,0-.68.08-1.08.05-1.6l.08-.05c-.08,0-.08-1.83-.13-2.07.08-.39.07,1.07.13,1.24-.01-2.75,0-1.38-.01-4.13-.08-1.46-.11.27-.21-.43-.01-1.29-.09-2.55-.02-4.04l-.11.47c-.04-1.03-.05-1.88-.05-2.65h-1.08c.04,3.68.16,7.15.21,12.61-.05,7.48-.23,9.46-.16,17.19-.01,3.7.04,7.63.06,11.24.15,1.72,0,4.74.13,6.77l-.09.8c.05.69.08,1.51.04,2.21l-.02-.04c.06,1.04.02,2.21.05,2.74l-.02-.05v1.26s-.02-.21-.02-.21c.07,1.81.07,3.69.05,5.34l.11-.13c-.12,3.52.09,4.82-.05,8.01l-.02-.04c.27,4.03-.18,6.37.07,10.52-.02-.52-.05.22-.07.18.02,1.92.05,3.96.25,3.99-.01,1.39-.07,1.14-.14,1.32.08,0,.12,1.19.13,2.28l-.04-.5.02,3.13.18-.61c-.05,1.65-.21.42-.16,2l.13-.02c-.02,2.29-.23,3.63-.33,5.85-.06,9.2.29,19.09.05,27.66l-.11.37c-.15.16.22,2.36.08,2.69l.07.99c-.02.28-.06.87-.08.37-.01.92.01.95.06,1.6l-.09.99c-.07,3.63.11,6.72.07,10.55-.19,4.6-.01,13.25.09,18.22.22,7.01-.37,15.16-.12,22.32-.02.23.02.84.04.83v6.57s-.01,2.27,0,5.14h1.25c.02-2.17,0-3.85-.12-5.65.2-.4.02-2.96.09-3.79v.07c-.14-2.19.14-4.51,0-6.63.01.06.05.11.06.33-.01-1.5-.05-3.37.07-3.46-.04-3.68.02-8.81-.18-11.17l.04.16c-.13-1.35-.01-1.74-.08-3.24.01-.06.02-.14.03-.16,0,.04,0,.08,0,.12,0-.08,0-.11,0-.12,0,0,0,0,0,0-.13-1.46-.02-4.27-.08-5.45l.08-.07v-2.91s-.04,1.09-.04,1.09c-.21-.37.14-2.2,0-4.32.02-1.98-.44-4-.34-6.05-.02-.16-.02-.25-.02-.28.06.13.16.68.11-.33.12-.05.07.69.16.3-.06-1.43.11-2.35.04-4.12l.08-.07c-.15-2.32.12-4.37-.04-5.9-.07-2.39.26-1.6.09-4.09l.12-.97c.01-1.05-.15-.76-.09-1.93.08.07.06-1.49.13-.8.12-2.67-.16-5.42.04-8.92-.14-.77-.06-2.54-.16-3.1.06-.09.01-3.55.14-1.56.01.16.01.47-.01.44l.08.25c.16-2-.08-3.64-.06-5.62-.02.59-.02,1.36-.08.84v-1.84s.08.37.08.37l.05-2.74-.09.37c.05-1.33.2-1.81.07-3.32-.07-.68-.12,1.28-.14-.14.06-1.8.15-4.48.18-6.78-.11.22-.09-.4-.12-1.03l.08-.08c-.12-2.42.2-.89.11-3.29Z"/>
        <path class="cls-2" d="M191.12,5.63s.04-.15.04-.56l-.04.56Z"/>
        <path class="cls-2" d="M191.17,146.3s0,.09,0,.13c0-.09,0-.12,0-.13Z"/>
        <path class="cls-2" d="M191.32,92.74v-1.84s.08.39.08.39l.04-2.74-.08.37c.05-1.35.2-1.81.07-3.32-.07-.69-.13,1.26-.15-.15.06-1.79.15-4.48.18-6.77-.09.21-.09-.41-.12-1.04l.09-.07c-.13-2.43.19-.89.09-3.3l-.12-.43c-.18-2.14.16-1.19-.06-3.51,0,.85-.2.34-.15-.8l.08.29c-.02-.66-.06-.87-.04-1.3.05.39.12.2.11-.75l.11.63-.15-1.8c.09-1.4-.02-3.62.09-4.19,0,0,.06-3.01-.07-3.7.08.61.11-1.05.21-.57-.09-.78-.18-3.08-.07-4v.18c.11-3.41-.13-5.83-.01-8.88-.09.14-.05-1.47-.18-1.08-.13-3.16.27-5.76-.13-6.91-.02-1.43.09-1.7.11-2.45l.02.35c-.04-2.7-.04-3.48-.02-5.49-.04-.99-.22-1.15-.19-2.94.08.57.07-.15.07-.83.01.43.04.56.08-.32-.02-.12-.04-.32-.05-.49,0-.01.01-.05.02-.02-.04-1.12-.06-.92-.07-.41-.01,0-.02.05-.04.19.09-1.16-.01-3.24.12-3.38-.04-3.36-.16-5.76-.21-8.56.06-.32.12.34.15,1.15l-.02-1.98c.09.01.05,1.14.07,1.74.15-2.35-.15-4.87-.01-7.63l-.08-.59v-.16s-.08-.61-.09-1.02c.08-.4.2.02.19-1.35.08-1.09-.04-3.08-.08-4.51-.01.77-.06.53-.09.2,0-.69.08-1.09.05-1.62l.09-.05s.01-.01.02-.02h-.02c-.08-.15-.09-1.81-.14-2.04.08-.4.07,1.07.13,1.23,0-2.75,0-1.37-.01-4.12-.08-1.47-.11.27-.2-.43-.02-1.3-.11-2.56-.04-4.05l-.09.47c-.02-.88-.05-1.62-.06-2.29h-1.08c.04,3.56.18,6.98.22,12.27-.05,7.47-.25,9.45-.16,17.19-.01,3.67.02,7.59.05,11.18,0-.03,0-.06,0-.09v.11s0,.02,0,.04c.15,1.71,0,4.74.13,6.77l-.08.78c.05.7.07,1.52.02,2.22l-.02-.05c.07,1.04.02,2.22.06,2.74l-.02-.05v1.28s-.02-.22-.02-.22c.07,1.81.07,3.7.04,5.35l.11-.14c-.12,3.53.09,4.82-.04,8.02l-.02-.05c.27,4.03-.19,6.37.07,10.52-.04-.52-.06.22-.08.19.04,1.91.05,3.96.25,3.98,0,1.4-.06,1.14-.14,1.32.09,0,.13,1.21.13,2.29l-.04-.5.04,3.11.16-.61c-.05,1.65-.2.42-.16,2h.14c-.02,2.27-.23,3.62-.34,5.83-.06,9.2.29,19.1.05,27.66l-.09.39c-.15.16.22,2.35.08,2.68l.07.99c-.04.28-.06.88-.09.37,0,.92.02.95.07,1.62l-.09.98c-.08,3.64.11,6.73.07,10.56-.2,4.59-.02,13.24.08,18.22.22,7-.37,15.15-.12,22.32-.02.23.02.83.05.83l-.02,6.57s0,2.46.01,5.48h1.25c.04-2.34.02-4.11-.11-6,.2-.39.01-2.95.08-3.79v.08c-.14-2.19.14-4.52.01-6.63.01.08.07.13.07.61-.02-1.53-.07-3.64.05-3.76-.04-3.68.02-8.8-.16-11.16l.04.15c-.13-1.33-.02-1.73-.08-3.23.01-.08.02-.18.02-.18-.13-1.46-.01-4.26-.07-5.44l.08-.08-.02-2.91v1.09c-.23-.37.12-2.2-.02-4.31.04-1.98-.44-4.01-.34-6.06-.02-.16-.02-.25-.02-.28.06.13.16.69.11-.32.12-.05.07.68.16.3-.05-1.44.12-2.35.04-4.13l.09-.07c-.16-2.31.12-4.37-.04-5.9-.07-2.39.26-1.6.08-4.09l.12-.96c.02-1.07-.14-.76-.08-1.94.07.07.06-1.49.13-.8.12-2.67-.16-5.41.04-8.92-.15-.76-.06-2.53-.18-3.1.07-.09.01-3.53.15-1.56.01.18.01.48-.01.46l.08.23c.16-2-.09-3.64-.07-5.62-.02.59-.01,1.37-.07.84Z"/>
      </g>
    </g>
  </g>
</svg>